<svg width="90" height="58" viewBox="0 0 90 58" fill="none" xmlns="http://www.w3.org/2000/svg">
<path d="M81.4301 0.735229C81.734 0.735229 82.0389 0.73523 82.3427 0.7374C82.5992 0.738782 82.8557 0.742431 83.1122 0.748942C83.6697 0.764037 84.2331 0.796694 84.786 0.895353C85.3389 0.989086 85.8748 1.16409 86.3765 1.41469C87.3839 1.92358 88.2027 2.73604 88.7155 3.73516C88.9688 4.23213 89.1454 4.76462 89.2393 5.31449C89.3392 5.86225 89.3715 6.42066 89.3865 6.97463C89.3934 7.22848 89.3973 7.48272 89.3982 7.73687C89.4004 8.03877 89.4004 8.34066 89.4004 8.64305V49.3548C89.4004 49.6572 89.4004 49.9586 89.3982 50.2613C89.3974 50.5156 89.3935 50.7699 89.3865 51.0242C89.3716 51.5767 89.3391 52.1357 89.2393 52.6832C89.1398 53.2395 88.9752 53.757 88.7154 54.2622C88.2002 55.2632 87.3815 56.0755 86.3765 56.5827C85.875 56.8341 85.339 57.0097 84.786 57.1036C84.2331 57.2016 83.6697 57.2344 83.1122 57.2496C82.8547 57.2553 82.5986 57.259 82.3428 57.2601C82.0389 57.2622 81.7339 57.2622 81.4301 57.2622H8.37067C8.0664 57.2622 7.76155 57.2622 7.45777 57.2601C7.20126 57.2584 6.94544 57.2552 6.68892 57.2495C6.13002 57.2344 5.56658 57.2016 5.01557 57.1037C4.45459 57.0041 3.93328 56.8403 3.4238 56.5827C2.92347 56.3308 2.46615 56.0013 2.06882 55.6064C1.67181 55.2132 1.33967 54.7595 1.08479 54.2622C0.831927 53.7652 0.655417 53.2329 0.561205 52.6832C0.461855 52.1357 0.42841 51.5767 0.413216 51.0242C0.406409 50.7696 0.403153 50.5153 0.401575 50.2613C0.400391 49.9586 0.400391 49.6572 0.400391 49.3548V8.64256C0.400391 8.34017 0.400391 8.03827 0.401575 7.73746C0.402857 7.48292 0.406705 7.22878 0.413216 6.97463C0.42841 6.42066 0.461263 5.86225 0.561205 5.31449C0.655585 4.76473 0.832295 4.23234 1.08538 3.73526C1.59999 2.73388 2.41887 1.92146 3.42429 1.41479C3.92603 1.16402 4.46208 0.988819 5.01507 0.89486C5.56658 0.796694 6.13002 0.763545 6.68892 0.74845C6.94544 0.741643 7.20126 0.738978 7.45777 0.736807C7.76155 0.735229 8.0664 0.735229 8.37067 0.735229H81.4301ZM81.4301 2.61932H8.37067L7.46892 2.621C7.22632 2.62199 6.98362 2.62583 6.74111 2.63175C6.31392 2.6433 5.81569 2.66628 5.35061 2.74896C4.98046 2.8101 4.62154 2.92629 4.28578 3.09368C3.96341 3.25621 3.66874 3.46864 3.41265 3.72312C3.15644 3.97607 2.94228 4.26833 2.77827 4.58885C2.60939 4.92146 2.49218 5.27786 2.4307 5.64579C2.34624 6.10959 2.32316 6.60318 2.31152 7.02583C2.3052 7.26706 2.30165 7.50828 2.30066 7.7496L2.29958 8.45629V49.5427L2.30116 50.2506C2.30224 50.4915 2.30579 50.7325 2.31201 50.9734C2.32267 51.3947 2.34624 51.8883 2.4302 52.3487C2.49162 52.7172 2.60878 53.0742 2.77768 53.4075C2.94144 53.7279 3.15526 54.0202 3.41107 54.2733C3.6666 54.528 3.96094 54.7405 4.28312 54.9029C4.61976 55.0713 4.97977 55.1881 5.35111 55.2495C5.82092 55.3328 6.34026 55.3563 6.74052 55.3667C6.98234 55.3723 7.22435 55.3754 7.46626 55.3765C7.76756 55.3787 8.06315 55.3787 8.35903 55.3787H81.4301C81.7293 55.3787 82.0293 55.3787 82.3275 55.3765C82.5788 55.3754 82.8234 55.3716 83.0692 55.3664C83.4599 55.3557 83.9794 55.3329 84.4532 55.249C84.8526 55.1775 85.1902 55.0681 85.5131 54.905C86.1624 54.5785 86.6911 54.054 87.0229 53.4075C87.1916 53.0761 87.3085 52.7209 87.3695 52.3541C87.4535 51.8932 87.4765 51.3975 87.4885 50.9729C87.4948 50.7328 87.498 50.4927 87.499 50.2527C87.5012 49.9498 87.5012 49.653 87.5012 49.3554V8.64305C87.5012 8.3456 87.5012 8.04873 87.4985 7.75167C87.498 7.5065 87.4948 7.26626 87.488 7.02642C87.4765 6.6011 87.4535 6.10564 87.3706 5.64984C87.2981 5.24602 87.1883 4.91206 87.0239 4.59211C86.6929 3.94564 86.1648 3.42124 85.5161 3.09476C85.1915 2.9304 84.8526 2.82088 84.4495 2.74896C83.9848 2.66619 83.4869 2.64339 83.0606 2.63175C82.8168 2.6257 82.573 2.62208 82.3291 2.6209L81.4301 2.61932ZM23.7946 19.8168C23.0133 20.727 21.7744 21.4481 20.5344 21.3417C20.3732 20.1109 20.9932 18.8012 21.6936 17.999C22.4745 17.0615 23.8221 16.3933 24.9265 16.3389C25.0612 17.6233 24.5494 18.8807 23.7946 19.8168ZM24.9124 21.5821H24.9119C25.6109 21.6354 27.6262 21.8489 28.9162 23.7417C28.8086 23.822 26.5245 25.1289 26.5512 27.8766C26.5781 31.1572 29.4527 32.2511 29.4797 32.2778C29.4527 32.3579 29.0241 33.8251 27.9756 35.3452C27.0622 36.679 26.1211 37.9858 24.6168 38.0124C23.1655 38.039 22.6816 37.159 21.0163 37.159C19.3503 37.159 18.8132 37.9858 17.4423 38.039C15.9915 38.0919 14.8904 36.6251 13.9767 35.2914C12.0947 32.5976 10.671 27.6897 12.6057 24.382C13.5466 22.7284 15.2661 21.6883 17.1196 21.6615C18.544 21.6354 19.8609 22.5956 20.721 22.5956C21.5809 22.5956 23.1111 21.4753 24.9124 21.5821ZM42.8638 17.8645C46.7772 17.8645 49.5027 20.5409 49.5027 24.4371C49.5027 28.3474 46.7212 31.0377 42.766 31.0377H38.4334V37.8744H35.3028V17.8645H42.8639H42.8638ZM38.4334 28.4306H42.0252C44.7512 28.4306 46.302 26.9748 46.302 24.4511C46.302 21.9279 44.7507 20.4852 42.039 20.4852H38.4334V28.4306ZM50.2794 33.7277C50.2794 31.1626 52.2501 29.6926 55.8836 29.4708L59.7831 29.235V28.1256C59.7831 26.5036 58.7072 25.6161 56.7925 25.6161C55.2125 25.6161 54.0663 26.4201 53.8297 27.6538H51.0058C51.0903 25.0613 53.5495 23.1756 56.8764 23.1756C60.4543 23.1756 62.7883 25.0336 62.7883 27.918V37.8739H59.8954V35.475H59.8255C59.0008 37.0415 57.1835 38.0259 55.2125 38.0259C52.3057 38.0259 50.2794 36.3071 50.2794 33.7277ZM59.7832 32.4386V31.315L56.3031 31.537C54.3458 31.6617 53.3266 32.3825 53.3266 33.6442C53.3266 34.8646 54.3883 35.6552 56.0515 35.6552C58.1754 35.6552 59.7831 34.3099 59.7831 32.4386H59.7832ZM65.4481 43.2258V40.8274C65.6441 40.8547 66.1186 40.8824 66.3706 40.8824C67.754 40.8824 68.5368 40.301 69.0121 38.8024L69.2917 37.9153L63.9943 23.3559H67.2646L70.9547 35.1698H71.0247L74.7143 23.3559H77.9012L72.4082 38.65C71.15 42.1586 69.7106 43.3099 66.6639 43.3099C66.4261 43.3099 65.6573 43.2822 65.4481 43.226V43.2258Z" fill="black"/>
</svg>
