<svg width="40" height="47" viewBox="0 0 40 47" fill="none" xmlns="http://www.w3.org/2000/svg">
<path d="M30.5062 5.389V1.93846C30.5062 1.03158 29.7542 0.279541 28.8473 0.279541C27.9404 0.279541 27.1884 1.03158 27.1884 1.93846V5.25629H12.8111V1.93846C12.8111 1.03158 12.0591 0.279541 11.1522 0.279541C10.2453 0.279541 9.49329 1.03158 9.49329 1.93846V5.389C3.5212 5.94197 0.623626 9.50311 0.181249 14.7895C0.137011 15.431 0.667864 15.9618 1.28719 15.9618H38.7123C39.3538 15.9618 39.8846 15.4088 39.8183 14.7895C39.3759 9.50311 36.4783 5.94197 30.5062 5.389ZM37.6949 19.2796H2.30466C1.08812 19.2796 0.0927734 20.275 0.0927734 21.4915V35.1168C0.0927734 41.7524 3.4106 46.1762 11.1522 46.1762H28.8473C36.5889 46.1762 39.9067 41.7524 39.9067 35.1168V21.4915C39.9067 20.275 38.9114 19.2796 37.6949 19.2796ZM13.8286 37.7931C13.718 37.8816 13.6074 37.9922 13.4968 38.0586C13.3641 38.147 13.2314 38.2134 13.0987 38.2576C12.966 38.324 12.8332 38.3682 12.7005 38.3904C12.5457 38.4125 12.413 38.4346 12.2582 38.4346C11.9706 38.4346 11.6831 38.3682 11.4176 38.2576C11.1301 38.147 10.9089 37.9922 10.6877 37.7931C10.2896 37.3729 10.0463 36.7978 10.0463 36.2227C10.0463 35.6476 10.2896 35.0725 10.6877 34.6523C10.9089 34.4532 11.1301 34.2984 11.4176 34.1878C11.8158 34.0108 12.2582 33.9666 12.7005 34.0551C12.8332 34.0772 12.966 34.1214 13.0987 34.1878C13.2314 34.232 13.3641 34.2984 13.4968 34.3868L13.8286 34.6523C14.2267 35.0725 14.47 35.6476 14.47 36.2227C14.47 36.7978 14.2267 37.3729 13.8286 37.7931ZM13.8286 30.0515C13.4083 30.4497 12.8332 30.693 12.2582 30.693C11.6831 30.693 11.108 30.4497 10.6877 30.0515C10.2896 29.6313 10.0463 29.0562 10.0463 28.4811C10.0463 27.906 10.2896 27.3309 10.6877 26.9107C11.307 26.2913 12.2803 26.0923 13.0987 26.4462C13.3862 26.5568 13.6295 26.7116 13.8286 26.9107C14.2267 27.3309 14.47 27.906 14.47 28.4811C14.47 29.0562 14.2267 29.6313 13.8286 30.0515ZM21.5702 37.7931C21.1499 38.1913 20.5748 38.4346 19.9998 38.4346C19.4247 38.4346 18.8496 38.1913 18.4293 37.7931C18.0312 37.3729 17.7879 36.7978 17.7879 36.2227C17.7879 35.6476 18.0312 35.0725 18.4293 34.6523C19.2477 33.8339 20.7518 33.8339 21.5702 34.6523C21.9683 35.0725 22.2116 35.6476 22.2116 36.2227C22.2116 36.7978 21.9683 37.3729 21.5702 37.7931ZM21.5702 30.0515L21.2384 30.317C21.1057 30.4054 20.973 30.4718 20.8403 30.516C20.7076 30.5824 20.5748 30.6266 20.4421 30.6487C20.2873 30.6709 20.1546 30.693 19.9998 30.693C19.4247 30.693 18.8496 30.4497 18.4293 30.0515C18.0312 29.6313 17.7879 29.0562 17.7879 28.4811C17.7879 27.906 18.0312 27.3309 18.4293 26.9107C18.6284 26.7116 18.8717 26.5568 19.1592 26.4462C19.9776 26.0923 20.9509 26.2913 21.5702 26.9107C21.9683 27.3309 22.2116 27.906 22.2116 28.4811C22.2116 29.0562 21.9683 29.6313 21.5702 30.0515ZM29.3118 37.7931C28.8915 38.1913 28.3165 38.4346 27.7414 38.4346C27.1663 38.4346 26.5912 38.1913 26.1709 37.7931C25.7728 37.3729 25.5295 36.7978 25.5295 36.2227C25.5295 35.6476 25.7728 35.0725 26.1709 34.6523C26.9893 33.8339 28.4934 33.8339 29.3118 34.6523C29.7099 35.0725 29.9532 35.6476 29.9532 36.2227C29.9532 36.7978 29.7099 37.3729 29.3118 37.7931ZM29.3118 30.0515L28.98 30.317C28.8473 30.4054 28.7146 30.4718 28.5819 30.516C28.4492 30.5824 28.3165 30.6266 28.1837 30.6487C28.0289 30.6709 27.8741 30.693 27.7414 30.693C27.1663 30.693 26.5912 30.4497 26.1709 30.0515C25.7728 29.6313 25.5295 29.0562 25.5295 28.4811C25.5295 27.906 25.7728 27.3309 26.1709 26.9107C26.3921 26.7116 26.6133 26.5568 26.9008 26.4462C27.299 26.2692 27.7414 26.225 28.1837 26.3134C28.3165 26.3356 28.4492 26.3798 28.5819 26.4462C28.7146 26.4904 28.8473 26.5568 28.98 26.6452L29.3118 26.9107C29.7099 27.3309 29.9532 27.906 29.9532 28.4811C29.9532 29.0562 29.7099 29.6313 29.3118 30.0515Z" fill="black" fill-opacity="0.5"/>
</svg>
