<svg width="29" height="29" viewBox="0 0 29 29" fill="none" xmlns="http://www.w3.org/2000/svg">
<path fill-rule="evenodd" clip-rule="evenodd" d="M0.0878906 14.6157C0.0878906 10.8491 1.58418 7.23671 4.2476 4.57329C6.91102 1.90987 10.5234 0.413574 14.29 0.413574C18.0567 0.413574 21.6691 1.90987 24.3325 4.57329C26.9959 7.23671 28.4922 10.8491 28.4922 14.6157C28.4922 18.3824 26.9959 21.9947 24.3325 24.6582C21.6691 27.3216 18.0567 28.8179 14.29 28.8179C10.5234 28.8179 6.91102 27.3216 4.2476 24.6582C1.58418 21.9947 0.0878906 18.3824 0.0878906 14.6157ZM13.4796 20.6942L21.6562 10.4725L20.1792 9.29086L13.2069 18.0034L8.26833 13.8886L7.05641 15.3429L13.4796 20.6961V20.6942Z" fill="#3E8A23"/>
</svg>
