<svg width="14" height="28" viewBox="0 0 14 28" fill="none" xmlns="http://www.w3.org/2000/svg">
<g clip-path="url(#clip0_609_1108)">
<path d="M14.3314 0.612188V4.87046H11.7986C11.4629 4.82755 11.1218 4.85737 10.7986 4.95789C10.4755 5.05842 10.1777 5.22729 9.92552 5.45306L9.92776 5.45083C9.56528 5.95933 9.39418 6.57957 9.44468 7.202V7.19305V10.2414H14.1737L13.5475 15.0163H9.45139V27.2566H4.51211V15.0152H0.396973V10.2414H4.51211V6.72451C4.45861 5.87509 4.58008 5.02373 4.86899 4.22316C5.1579 3.4226 5.6081 2.68988 6.19171 2.07038L6.18835 2.07373C6.78402 1.50931 7.48814 1.07177 8.25799 0.787661C9.02785 0.503554 9.8474 0.378801 10.6669 0.420969H10.6524C11.9253 0.399972 13.198 0.469103 14.4611 0.627844L14.3303 0.614425L14.3314 0.612188Z" fill="#2466D5"/>
</g>
<defs>
<clipPath id="clip0_609_1108">
<rect width="13.4189" height="26.8378" fill="white" transform="translate(0.395752 0.418945)"/>
</clipPath>
</defs>
</svg>
