<svg width="49" height="49" viewBox="0 0 49 49" fill="none" xmlns="http://www.w3.org/2000/svg">
<path d="M15.4834 40.5776H38.4834L44.4834 46.5776V25.5776C44.4834 23.3776 42.6834 21.5776 40.4834 21.5776H15.4834C13.2834 21.5776 11.4834 23.3776 11.4834 25.5776V36.5776C11.4834 38.7776 13.2834 40.5776 15.4834 40.5776Z" fill="#FFB800"/>
<path d="M29.2832 33.3776H25.6832L24.9832 35.4776H22.7832L26.4832 25.4776H28.3832L32.0832 35.4776H29.8832L29.2832 33.3776ZM26.1832 31.7776H28.6832L27.4832 27.9776L26.1832 31.7776Z" fill="white"/>
<path d="M33.4834 25.5776H10.4834L4.4834 31.5776V8.57764C4.4834 6.37764 6.2834 4.57764 8.4834 4.57764H33.4834C35.6834 4.57764 37.4834 6.37764 37.4834 8.57764V21.5776C37.4834 23.7776 35.6834 25.5776 33.4834 25.5776Z" fill="#FF4A4A"/>
<path d="M25.883 14.7776C25.883 15.7776 25.683 16.5776 25.383 17.2776C25.083 17.9776 24.683 18.5776 24.083 18.9776L25.783 20.2776L24.483 21.4776L22.283 19.7776C22.083 19.7776 21.783 19.8776 21.483 19.8776C20.883 19.8776 20.283 19.7776 19.683 19.5776C19.183 19.3776 18.683 18.9776 18.283 18.5776C17.883 18.1776 17.583 17.5776 17.383 16.9776C17.183 16.3776 17.083 15.6776 17.083 14.8776V14.4776C17.083 13.6776 17.183 12.9776 17.383 12.3776C17.583 11.7776 17.883 11.1776 18.283 10.7776C18.683 10.3776 19.083 9.97763 19.683 9.77763C20.183 9.57763 20.783 9.47763 21.483 9.47763C22.083 9.47763 22.683 9.57763 23.283 9.77763C23.783 9.97763 24.283 10.3776 24.683 10.7776C25.083 11.1776 25.383 11.7776 25.583 12.3776C25.783 12.9776 25.883 13.6776 25.883 14.4776V14.7776ZM23.683 14.2776C23.683 13.1776 23.483 12.3776 23.083 11.8776C22.683 11.2776 22.183 11.0776 21.483 11.0776C20.783 11.0776 20.183 11.3776 19.883 11.8776C19.483 12.4776 19.283 13.2776 19.283 14.2776V14.7776C19.283 15.2776 19.383 15.7776 19.483 16.1776C19.583 16.5776 19.683 16.9776 19.883 17.1776C20.083 17.4776 20.283 17.6776 20.583 17.7776C20.883 17.8776 21.183 17.9776 21.483 17.9776C22.183 17.9776 22.783 17.6776 23.083 17.1776C23.483 16.5776 23.683 15.7776 23.683 14.6776V14.2776Z" fill="white"/>
</svg>
