<svg width="45" height="44" viewBox="0 0 45 44" fill="none" xmlns="http://www.w3.org/2000/svg">
<circle cx="22.374" cy="21.757" r="20.6846" fill="#FF4A4A" stroke="white" stroke-width="2"/>
<path d="M28.3752 15.757C27.7652 15.757 27.2052 15.407 26.9252 14.867L26.2052 13.417C25.7452 12.507 24.5452 11.757 23.5252 11.757H21.2352C20.2052 11.757 19.0052 12.507 18.5452 13.417L17.8252 14.867C17.5452 15.407 16.9852 15.757 16.3752 15.757C14.2052 15.757 12.4852 17.587 12.6252 19.747L13.1452 28.007C13.2652 30.067 14.3752 31.757 17.1352 31.757H27.6152C30.3752 31.757 31.4752 30.067 31.6052 28.007L32.1252 19.747C32.1576 19.2348 32.0846 18.7214 31.9107 18.2386C31.7369 17.7557 31.4659 17.3137 31.1144 16.9397C30.7629 16.5658 30.3385 16.2679 29.8674 16.0644C29.3962 15.861 28.8884 15.7563 28.3752 15.757ZM20.8752 17.007H23.8752C24.2852 17.007 24.6252 17.347 24.6252 17.757C24.6252 18.167 24.2852 18.507 23.8752 18.507H20.8752C20.4652 18.507 20.1252 18.167 20.1252 17.757C20.1252 17.347 20.4652 17.007 20.8752 17.007ZM22.3752 27.877C20.5152 27.877 18.9952 26.367 18.9952 24.497C18.9952 22.627 20.5052 21.117 22.3752 21.117C24.2452 21.117 25.7552 22.627 25.7552 24.497C25.7552 26.367 24.2352 27.877 22.3752 27.877Z" fill="white"/>
</svg>
