<svg width="28" height="28" viewBox="0 0 28 28" fill="none" xmlns="http://www.w3.org/2000/svg">
<path d="M27.304 14.1054C27.304 13.0057 27.2127 12.2033 27.0151 11.3711H14.1636V16.3345H21.7071C21.5551 17.5679 20.7338 19.4255 18.9087 20.6737L18.8831 20.8399L22.9465 23.9157L23.2281 23.9431C25.8135 21.61 27.304 18.1772 27.304 14.1054Z" fill="#4285F4"/>
<path d="M14.1636 27.1827C17.8593 27.1827 20.9619 25.9938 23.2281 23.9431L18.9088 20.6737C17.7529 21.4613 16.2016 22.0111 14.1636 22.0111C10.544 22.0111 7.47178 19.6781 6.37664 16.4534L6.21611 16.4667L1.99092 19.6617L1.93567 19.8118C4.18656 24.1808 8.81007 27.1827 14.1636 27.1827Z" fill="#34A853"/>
<path d="M6.37657 16.4534C6.08761 15.6212 5.92037 14.7295 5.92037 13.8082C5.92037 12.8868 6.08761 11.9952 6.36137 11.163L6.35371 10.9857L2.07558 7.73938L1.9356 7.80443C1.0079 9.61745 0.475586 11.6534 0.475586 13.8082C0.475586 15.9629 1.0079 17.9988 1.9356 19.8118L6.37657 16.4534Z" fill="#FBBC05"/>
<path d="M14.1636 5.60504C16.7339 5.60504 18.4677 6.68986 19.4563 7.59642L23.3193 3.91097C20.9468 1.75619 17.8593 0.433594 14.1636 0.433594C8.81007 0.433594 4.18656 3.43541 1.93567 7.80438L6.36143 11.1629C7.47178 7.93818 10.544 5.60504 14.1636 5.60504Z" fill="#EB4335"/>
</svg>
