<svg width="73" height="73" viewBox="0 0 73 73" fill="none" xmlns="http://www.w3.org/2000/svg">
<path d="M36.7544 22.7913V39.6342M32.3954 2.98437C34.8364 0.926962 38.7769 0.926962 41.1482 2.98437L46.6578 7.69201C47.704 8.5638 49.6917 9.2961 51.0865 9.2961H57.0146C60.711 9.2961 63.7448 12.3299 63.7448 16.0263V21.9544C63.7448 23.3493 64.4771 25.3021 65.3489 26.3482L70.0566 31.8579C72.114 34.2989 72.114 38.2394 70.0566 40.6106L65.3489 46.1203C64.4771 47.1664 63.7448 49.1192 63.7448 50.5141V56.4422C63.7448 60.1386 60.711 63.1724 57.0146 63.1724H51.0865C49.6917 63.1724 47.7389 63.9047 46.6927 64.7765L41.183 69.4841C38.742 71.5416 34.8016 71.5416 32.4303 69.4841L26.9206 64.7765C25.8745 63.9047 23.8868 63.1724 22.5268 63.1724H16.4243C12.728 63.1724 9.69415 60.1386 9.69415 56.4422V50.4792C9.69415 49.1192 8.99672 47.1316 8.12494 46.1203L3.4173 40.5758C1.39476 38.1696 1.39476 34.264 3.4173 31.8579L8.12494 26.3133C8.99672 25.2672 9.69415 23.3144 9.69415 21.9544V16.0612C9.69415 12.3648 12.728 9.33097 16.4243 9.33097H22.4571C23.8519 9.33097 25.8047 8.59867 26.8509 7.72689L32.3954 2.98437Z" stroke="white" stroke-width="2" stroke-linecap="round" stroke-linejoin="round"/>
<path d="M36.7305 50.2351H36.7614" stroke="white" stroke-width="2.5" stroke-linecap="round" stroke-linejoin="round"/>
</svg>
