<svg width="228" height="45" viewBox="0 0 228 45" fill="none" xmlns="http://www.w3.org/2000/svg">
<path d="M42.1173 33.5523L52.6609 18.0876H34.8369L26.5782 30.2015H26.575L26.5782 30.208L28.8566 33.5523C30.4524 35.8904 32.9681 37.0595 35.4869 37.0595C38.0058 37.0595 40.5215 35.8904 42.1173 33.5523Z" fill="#FF4A4A"/>
<path d="M24.2998 33.5523L26.5815 30.2047L18.3228 18.0876H0.498779L11.0424 33.5523C12.6349 35.8904 15.1538 37.0595 17.6727 37.0595C20.1916 37.0595 22.7072 35.8904 24.3031 33.5523" fill="#FF4A4A"/>
<path d="M84.4184 18.0291L76.1434 36.9879H70.5629L69.7276 24.5386L64.4168 36.9879H58.8362L57.3801 18.0291H62.3139L62.6097 31.8297L68.4047 18.0291H73.4978L74.3071 31.7483L79.4553 18.0291H84.4151H84.4184Z" fill="black"/>
<path d="M83.2581 25.3462C84.0479 24.1771 85.0002 23.2751 86.115 22.6466C87.2298 22.0181 88.4064 21.7023 89.6447 21.7023C90.7043 21.7023 91.5948 21.9172 92.3131 22.3503C93.0314 22.7834 93.5514 23.35 93.8764 24.0501L94.2534 21.9172H98.8622L96.1938 36.9879H91.585L91.9881 34.8549C91.4128 35.5583 90.6848 36.1249 89.804 36.5548C88.9232 36.9879 87.9513 37.2028 86.8918 37.2028C85.8322 37.2028 84.8929 36.9585 84.0739 36.4733C83.2548 35.9881 82.6211 35.2978 82.1725 34.4088C81.724 33.5165 81.4998 32.468 81.4998 31.2631C81.4998 30.6867 81.555 30.0745 81.6623 29.4265C81.932 27.8797 82.4618 26.5185 83.2516 25.3494L83.2581 25.3462ZM93.0151 28.5603C93.0151 27.6778 92.7584 26.9842 92.2481 26.4794C91.7346 25.9747 91.0845 25.7239 90.2947 25.7239C89.3782 25.7239 88.5429 26.0528 87.7888 26.7106C87.0348 27.3684 86.557 28.2737 86.3588 29.4232C86.3035 29.7489 86.2775 30.0452 86.2775 30.3155C86.2775 31.198 86.5343 31.8948 87.0446 32.4093C87.5581 32.9239 88.1984 33.1779 88.9719 33.1779C89.8885 33.1779 90.7238 32.8457 91.4778 32.1781C92.2318 31.5138 92.7161 30.602 92.9339 29.4493C92.9891 29.1269 93.0151 28.8273 93.0151 28.557V28.5603Z" fill="black"/>
<path d="M102.057 36.6362C101.115 36.2585 100.373 35.7309 99.8339 35.0568C99.2944 34.3828 99.0247 33.6045 99.0247 32.722C99.0247 32.595 99.0409 32.3703 99.0799 32.0479H103.526C103.49 32.6048 103.656 33.0509 104.023 33.3863C104.391 33.7185 104.917 33.8845 105.6 33.8845C106.175 33.8845 106.65 33.7771 107.03 33.5589C107.407 33.344 107.595 33.0379 107.595 32.6406C107.595 32.2433 107.394 31.96 106.988 31.7353C106.585 31.5106 105.915 31.2371 104.979 30.9114C104.007 30.5891 103.195 30.2667 102.538 29.9541C101.882 29.6382 101.319 29.1855 100.855 28.5896C100.386 27.997 100.152 27.248 100.152 26.3492C100.152 25.4504 100.412 24.6722 100.933 23.959C101.453 23.2491 102.187 22.6955 103.13 22.2982C104.072 21.901 105.164 21.7056 106.406 21.7056C107.647 21.7056 108.723 21.9075 109.64 22.3145C110.556 22.7183 111.265 23.2817 111.769 24.0013C112.272 24.721 112.523 25.5319 112.523 26.4306L112.497 26.8344H108.317C108.353 26.2938 108.19 25.8608 107.833 25.5384C107.472 25.2127 106.962 25.0532 106.295 25.0532C105.775 25.0532 105.346 25.1606 105.015 25.3788C104.683 25.5937 104.517 25.8933 104.517 26.2711C104.517 26.6488 104.738 26.9972 105.177 27.2578C105.616 27.5183 106.305 27.8113 107.238 28.137C108.21 28.4594 109.012 28.7817 109.649 29.0944C110.287 29.4102 110.836 29.8498 111.294 30.4165C111.752 30.9831 111.98 31.6897 111.98 32.5364C111.98 33.5101 111.687 34.347 111.102 35.0471C110.517 35.7505 109.718 36.2845 108.704 36.6525C107.69 37.0205 106.533 37.2061 105.239 37.2061C104.053 37.2061 102.987 37.0172 102.044 36.6395L102.057 36.6362Z" fill="black"/>
<path d="M128.367 23.0244C129.222 23.871 129.648 25.0498 129.648 26.5608C129.648 27.0656 129.593 27.6061 129.485 28.1825L127.922 36.9878H123.339L124.795 28.8045C124.851 28.4984 124.877 28.2281 124.877 27.9936C124.877 27.2381 124.665 26.652 124.243 26.2384C123.82 25.8249 123.232 25.6165 122.478 25.6165C121.578 25.6165 120.824 25.8965 120.213 26.4534C119.602 27.0102 119.205 27.795 119.026 28.8045V28.7491L117.57 36.9846H112.961L116.491 17H121.1L119.888 23.9134C120.479 23.249 121.207 22.7215 122.072 22.334C122.933 21.9465 123.869 21.7544 124.873 21.7544C126.346 21.7544 127.509 22.1777 128.364 23.0244H128.367Z" fill="black"/>
<path d="M154.821 18.0291L151.479 36.9879H146.871L148.892 25.6197L142.639 36.9879H138.921L136.655 25.5644L134.66 36.9879H130.051L133.392 18.0291H138.836L141.856 31.1556L149.403 18.0291H154.821Z" fill="black"/>
<path d="M160.885 21.9172L162.718 31.3412L167.841 21.9172H172.826L159.484 44.1422H154.525L159.322 36.4733L155.763 21.9172H160.885Z" fill="black"/>
<path d="M188.785 18.0291L188.164 21.6762H183.123L180.429 36.9879H175.82L178.514 21.6762H173.499L174.146 18.0291H188.782H188.785Z" fill="#FF4A4A"/>
<rect x="190.499" width="37" height="22" rx="11" fill="#FF4A4A"/>
<path d="M199.298 15V7.72727H201.89C202.456 7.72727 202.925 7.83026 203.296 8.03622C203.668 8.24219 203.946 8.52391 204.131 8.88139C204.316 9.23651 204.408 9.6366 204.408 10.0817C204.408 10.5291 204.314 10.9316 204.127 11.2891C203.943 11.6442 203.663 11.9259 203.289 12.1342C202.918 12.3402 202.45 12.4432 201.887 12.4432H200.104V11.5128H201.787C202.145 11.5128 202.435 11.4512 202.657 11.3281C202.88 11.2027 203.043 11.0322 203.147 10.8168C203.251 10.6013 203.303 10.3563 203.303 10.0817C203.303 9.80705 203.251 9.56321 203.147 9.35014C203.043 9.13707 202.879 8.97017 202.654 8.84943C202.431 8.72869 202.138 8.66832 201.773 8.66832H200.395V15H199.298ZM205.694 15V7.72727H208.287C208.85 7.72727 209.318 7.82434 209.689 8.01847C210.063 8.21259 210.343 8.4813 210.527 8.82457C210.712 9.16548 210.804 9.55966 210.804 10.0071C210.804 10.4522 210.711 10.844 210.524 11.1825C210.339 11.5187 210.06 11.7803 209.686 11.9673C209.314 12.1544 208.846 12.2479 208.283 12.2479H206.319V11.3033H208.184C208.539 11.3033 208.828 11.2524 209.05 11.1506C209.275 11.0488 209.44 10.9008 209.544 10.7067C209.648 10.5125 209.7 10.2794 209.7 10.0071C209.7 9.73248 209.647 9.49455 209.54 9.29332C209.436 9.09209 209.271 8.93821 209.047 8.83168C208.824 8.72277 208.532 8.66832 208.169 8.66832H206.792V15H205.694ZM209.284 11.7188L211.081 15H209.831L208.07 11.7188H209.284ZM218.457 11.3636C218.457 12.1402 218.315 12.8078 218.031 13.3665C217.747 13.9228 217.357 14.3513 216.863 14.652C216.37 14.9503 215.81 15.0994 215.183 15.0994C214.553 15.0994 213.991 14.9503 213.496 14.652C213.004 14.3513 212.615 13.9216 212.331 13.3629C212.047 12.8042 211.905 12.1378 211.905 11.3636C211.905 10.5871 212.047 9.92069 212.331 9.36435C212.615 8.80563 213.004 8.37713 213.496 8.07884C213.991 7.77817 214.553 7.62784 215.183 7.62784C215.81 7.62784 216.37 7.77817 216.863 8.07884C217.357 8.37713 217.747 8.80563 218.031 9.36435C218.315 9.92069 218.457 10.5871 218.457 11.3636ZM217.37 11.3636C217.37 10.7718 217.275 10.2734 217.083 9.86861C216.893 9.46141 216.633 9.15365 216.302 8.94531C215.972 8.73461 215.6 8.62926 215.183 8.62926C214.764 8.62926 214.39 8.73461 214.061 8.94531C213.732 9.15365 213.471 9.46141 213.279 9.86861C213.09 10.2734 212.995 10.7718 212.995 11.3636C212.995 11.9555 213.09 12.455 213.279 12.8622C213.471 13.267 213.732 13.5748 214.061 13.7855C214.39 13.9938 214.764 14.098 215.183 14.098C215.6 14.098 215.972 13.9938 216.302 13.7855C216.633 13.5748 216.893 13.267 217.083 12.8622C217.275 12.455 217.37 11.9555 217.37 11.3636Z" fill="white"/>
</svg>
