<svg width="49" height="31" viewBox="0 0 49 31" fill="none" xmlns="http://www.w3.org/2000/svg">
<path d="M18.0449 3.26666H31.1569V26.8267H18.0449V3.26666Z" fill="#FF5F00"/>
<path d="M18.8789 15.0467C18.8789 10.2599 21.1266 6.01397 24.5815 3.26661C22.0425 1.26862 18.8374 0.0615234 15.3409 0.0615234C7.05709 0.0615234 0.355469 6.76314 0.355469 15.0467C0.355469 23.3301 7.05709 30.0319 15.3407 30.0319C18.8372 30.0319 22.0423 28.8249 24.5815 26.8267C21.1266 24.121 18.8789 19.8336 18.8789 15.0467Z" fill="#EB001B"/>
<path d="M48.849 15.0467C48.849 23.3301 42.1474 30.0319 33.8638 30.0319C30.3673 30.0319 27.1622 28.8249 24.623 26.8267C28.1196 24.0795 30.3258 19.8336 30.3258 15.0467C30.3258 10.2599 28.0779 6.01397 24.623 3.26661C27.162 1.26862 30.3673 0.0615234 33.8638 0.0615234C42.1474 0.0615234 48.849 6.80486 48.849 15.0467Z" fill="#F79E1B"/>
</svg>
