<svg width="40" height="40" viewBox="0 0 40 40" fill="none" xmlns="http://www.w3.org/2000/svg">
<path d="M39 25.9733C39 33.1904 33.163 39.0274 25.9459 39.0274L27.9041 35.7639M1.70264 14.7841C1.70264 7.56708 7.53968 1.73004 14.7567 1.73004L12.7986 4.99356M23.5216 6.29897L30.9438 10.5882L38.2914 6.31762M30.9438 18.1782V10.5695" stroke="#FF4A4A" stroke-width="1.5" stroke-linecap="round" stroke-linejoin="round"/>
<path d="M2.35522 26.8125L9.75876 31.1017L17.125 26.8312M9.75876 38.6918V31.0831M29.1907 2.12166L24.715 4.60194C23.708 5.1614 22.8688 6.5787 22.8688 7.73492V12.4717C22.8688 13.6279 23.6893 15.0452 24.715 15.6047L29.1907 18.0849C30.1418 18.6258 31.7083 18.6258 32.678 18.0849L37.1537 15.6047C38.1607 15.0452 38.9999 13.6279 38.9999 12.4717V7.73492C38.9999 6.5787 38.1794 5.1614 37.1537 4.60194L32.678 2.12166C31.7269 1.5995 30.1604 1.5995 29.1907 2.12166Z" stroke="black" stroke-width="1.5" stroke-linecap="round" stroke-linejoin="round"/>
<path d="M8.0243 22.6352L3.54861 25.1155C2.54158 25.675 1.70239 27.0923 1.70239 28.2485V32.9852C1.70239 34.1415 2.52294 35.5588 3.54861 36.1182L8.0243 38.5985C8.97538 39.1393 10.5419 39.1393 11.5116 38.5985L15.9873 36.1182C16.9943 35.5588 17.8335 34.1415 17.8335 32.9852V28.2485C17.8335 27.0923 17.013 25.675 15.9873 25.1155L11.5116 22.6352C10.5419 22.1131 8.97538 22.1131 8.0243 22.6352Z" stroke="black" stroke-width="1.5" stroke-linecap="round" stroke-linejoin="round"/>
</svg>
