<svg width="44" height="40" viewBox="0 0 44 40" fill="none" xmlns="http://www.w3.org/2000/svg">
<path d="M40.68 9.92322L34.3583 35.3035C34.1389 36.2213 33.6154 37.0379 32.8729 37.6203C32.1304 38.2027 31.2126 38.5167 30.269 38.5112H5.62027C2.78774 38.5112 0.761816 35.735 1.60595 33.015L9.50329 7.65344C9.76718 6.79336 10.299 6.0401 11.0211 5.50356C11.7433 4.96701 12.618 4.67525 13.5176 4.67084H36.5906C38.3727 4.67084 39.8546 5.75883 40.4736 7.25951C40.83 8.06613 40.9051 8.9853 40.68 9.92322Z" stroke="black" stroke-width="2" stroke-miterlimit="10"/>
<path d="M29.5558 38.5112H38.5224C40.9422 38.5112 42.8368 36.4665 42.668 34.0466L40.8109 8.49751M17.7004 9.21033L19.6513 1.10665M30.2686 9.22909L32.0319 1.08789M13.9862 19.7526H28.993M12.1104 27.256H27.1172" stroke="#FF4A4A" stroke-width="2" stroke-miterlimit="10" stroke-linecap="round" stroke-linejoin="round"/>
</svg>
