<svg width="40" height="39" viewBox="0 0 40 39" fill="none" xmlns="http://www.w3.org/2000/svg">
<path d="M33.2767 14.1011C33.2767 16.8013 32.476 19.278 31.098 21.345C30.0882 22.851 28.7747 24.1293 27.2418 25.0978C25.7089 26.0663 23.9904 26.7036 22.1967 26.9688C21.5636 27.0805 20.9118 27.1364 20.2414 27.1364C19.571 27.1364 18.9193 27.0805 18.2861 26.9688C16.4924 26.7036 14.774 26.0663 13.2411 25.0978C11.7081 24.1293 10.3947 22.851 9.3849 21.345C7.95531 19.2003 7.19682 16.6785 7.20614 14.1011C7.20614 6.89443 13.0348 1.0658 20.2414 1.0658C27.4481 1.0658 33.2767 6.89443 33.2767 14.1011Z" stroke="#FF4A4A" stroke-width="1.5" stroke-linecap="round" stroke-linejoin="round"/>
<path d="M37.467 31.736L34.3944 32.4623C33.7054 32.6299 33.1654 33.1513 33.0164 33.8403L32.3647 36.5777C32.2847 36.9137 32.1129 37.2209 31.8684 37.4649C31.6239 37.7088 31.3163 37.88 30.9801 37.9592C30.6439 38.0384 30.2923 38.0226 29.9646 37.9135C29.6369 37.8043 29.346 37.6062 29.1245 37.3412L20.2418 27.1364L11.3592 37.3598C11.1376 37.6248 10.8468 37.8229 10.519 37.9321C10.1913 38.0412 9.83973 38.0571 9.50353 37.9779C9.16733 37.8986 8.8598 37.7275 8.61529 37.4835C8.37079 37.2395 8.19896 36.9324 8.11901 36.5963L7.46725 33.8589C7.38803 33.524 7.21718 33.2177 6.97381 32.9743C6.73044 32.731 6.42416 32.5601 6.08923 32.4809L3.01663 31.7547C2.6947 31.6775 2.39907 31.5161 2.16001 31.2872C1.92095 31.0582 1.74704 30.7698 1.65609 30.4514C1.56515 30.1331 1.56044 29.7964 1.64244 29.4757C1.72444 29.1549 1.89021 28.8618 2.12278 28.6262L9.3853 21.3637C10.3951 22.8697 11.7085 24.148 13.2415 25.1165C14.7744 26.085 16.4928 26.7223 18.2865 26.9875C18.9197 27.0992 19.5714 27.1551 20.2418 27.1551C20.9122 27.1551 21.564 27.0992 22.1971 26.9875C25.9029 26.4474 29.0872 24.3432 31.0984 21.3637L38.3609 28.6262C39.3851 29.6318 38.8823 31.4008 37.467 31.736ZM21.3219 8.47734L22.4206 10.6747C22.5696 10.9727 22.9606 11.2706 23.3144 11.3265L25.307 11.6617C26.5733 11.8665 26.8712 12.7976 25.9587 13.7101L24.4131 15.2557C24.1524 15.5164 24.0034 16.0192 24.0966 16.3916L24.5435 18.3097C24.8973 19.818 24.0966 20.4139 22.7558 19.6132L20.8936 18.5145C20.7045 18.4136 20.4934 18.3608 20.2791 18.3608C20.0647 18.3608 19.8537 18.4136 19.6646 18.5145L17.8024 19.6132C16.4616 20.3953 15.6609 19.818 16.0147 18.3097L16.4616 16.3916C16.5361 16.0378 16.4057 15.5164 16.145 15.2557L14.5994 13.7101C13.6869 12.7976 13.9849 11.8851 15.2512 11.6617L17.2437 11.3265C17.5789 11.2706 17.97 10.9727 18.1189 10.6747L19.2176 8.47734C19.7577 7.28555 20.726 7.28555 21.3219 8.47734Z" stroke="black" stroke-width="1.5" stroke-linecap="round" stroke-linejoin="round"/>
</svg>
