<svg width="40" height="39" viewBox="0 0 40 39" fill="none" xmlns="http://www.w3.org/2000/svg">
<path d="M14.0481 23.8527C14.0481 26.2367 15.8777 28.1587 18.1508 28.1587H22.7895C24.767 28.1587 26.3748 26.477 26.3748 24.4071C26.3748 22.1525 25.3953 21.3578 23.9354 20.8403L16.4876 18.253C15.0276 17.7355 14.0481 16.9408 14.0481 14.6862C14.0481 12.6163 15.6559 10.9346 17.6334 10.9346H22.2721C24.5452 10.9346 26.3748 12.8566 26.3748 15.2406M20.1985 8.45813V30.6352" stroke="#FF4A4A" stroke-width="1.5" stroke-linecap="round" stroke-linejoin="round"/>
<path d="M25.7431 38.0275H14.6546C5.41419 38.0275 1.71802 34.3313 1.71802 25.0909V14.0023C1.71802 4.76191 5.41419 1.06573 14.6546 1.06573H25.7431C34.9836 1.06573 38.6797 4.76191 38.6797 14.0023V25.0909C38.6797 34.3313 34.9836 38.0275 25.7431 38.0275Z" stroke="black" stroke-width="1.5" stroke-linecap="round" stroke-linejoin="round"/>
</svg>
