<svg width="16" height="17" viewBox="0 0 16 17" fill="none" xmlns="http://www.w3.org/2000/svg">
<path d="M7.80493 0.750977C3.4923 0.750977 0 4.25109 0 8.56372C0 12.8764 3.4923 16.3765 7.80493 16.3765C12.1254 16.3765 15.6255 12.8764 15.6255 8.56372C15.6255 4.25109 12.1254 0.750977 7.80493 0.750977ZM10.9378 11.6888C10.8656 11.7612 10.7797 11.8187 10.6852 11.8579C10.5907 11.8971 10.4894 11.9173 10.387 11.9173C10.2847 11.9173 10.1834 11.8971 10.0889 11.8579C9.99438 11.8187 9.90852 11.7612 9.83625 11.6888L7.26585 9.11843C7.19203 9.04607 7.1333 8.95978 7.09307 8.86456C7.05284 8.76934 7.0319 8.66709 7.03147 8.56372V5.43862C7.03147 5.00892 7.38304 4.65735 7.81274 4.65735C8.24244 4.65735 8.59402 5.00892 8.59402 5.43862V8.2434L10.9378 10.5872C11.2425 10.8919 11.2425 11.3841 10.9378 11.6888Z" fill="black" fill-opacity="0.5"/>
</svg>
