<svg width="119" height="52" viewBox="0 0 119 52" fill="none" xmlns="http://www.w3.org/2000/svg">
<path d="M74.6655 12.3054V28.3054H71.7671V15.1257H71.6733L67.9312 17.5164V14.8601L71.9077 12.3054H74.6655ZM84.4155 28.5242C83.2541 28.5242 82.2228 28.3289 81.3218 27.9382C80.4259 27.5476 79.7228 27.0138 79.2124 26.3367C78.7072 25.6544 78.4572 24.8809 78.4624 24.0164C78.4572 23.3445 78.603 22.7273 78.8999 22.1648C79.1968 21.6023 79.5978 21.1335 80.103 20.7585C80.6134 20.3783 81.1812 20.1361 81.8062 20.032V19.9226C80.9832 19.7403 80.3166 19.321 79.8062 18.6648C79.3009 18.0033 79.0509 17.2403 79.0562 16.3757C79.0509 15.5528 79.2801 14.8184 79.7437 14.1726C80.2072 13.5268 80.8426 13.019 81.6499 12.6492C82.4572 12.2742 83.3791 12.0867 84.4155 12.0867C85.4416 12.0867 86.3556 12.2742 87.1577 12.6492C87.965 13.019 88.6004 13.5268 89.064 14.1726C89.5327 14.8184 89.7671 15.5528 89.7671 16.3757C89.7671 17.2403 89.5093 18.0033 88.9937 18.6648C88.4832 19.321 87.8244 19.7403 87.0171 19.9226V20.032C87.6421 20.1361 88.2046 20.3783 88.7046 20.7585C89.2098 21.1335 89.6108 21.6023 89.9077 22.1648C90.2098 22.7273 90.3608 23.3445 90.3608 24.0164C90.3608 24.8809 90.1056 25.6544 89.5952 26.3367C89.0848 27.0138 88.3817 27.5476 87.4858 27.9382C86.5952 28.3289 85.5718 28.5242 84.4155 28.5242ZM84.4155 26.2898C85.0145 26.2898 85.5353 26.1882 85.978 25.9851C86.4207 25.7768 86.7645 25.4851 87.0093 25.1101C87.2541 24.7351 87.3791 24.3028 87.3843 23.8132C87.3791 23.3028 87.2463 22.8523 86.9858 22.4617C86.7306 22.0658 86.3791 21.7559 85.9312 21.532C85.4884 21.308 84.9832 21.196 84.4155 21.196C83.8426 21.196 83.3322 21.308 82.8843 21.532C82.4364 21.7559 82.0822 22.0658 81.8218 22.4617C81.5666 22.8523 81.4416 23.3028 81.4468 23.8132C81.4416 24.3028 81.5614 24.7351 81.8062 25.1101C82.0509 25.4799 82.3947 25.769 82.8374 25.9773C83.2853 26.1856 83.8114 26.2898 84.4155 26.2898ZM84.4155 19.0007C84.9051 19.0007 85.3374 18.9018 85.7124 18.7039C86.0926 18.5059 86.3921 18.2299 86.6108 17.8757C86.8296 17.5216 86.9416 17.1127 86.9468 16.6492C86.9416 16.1908 86.8322 15.7898 86.6187 15.446C86.4051 15.0971 86.1082 14.8289 85.728 14.6414C85.3478 14.4486 84.9103 14.3523 84.4155 14.3523C83.9103 14.3523 83.465 14.4486 83.0796 14.6414C82.6994 14.8289 82.4025 15.0971 82.189 15.446C81.9806 15.7898 81.8791 16.1908 81.8843 16.6492C81.8791 17.1127 81.9832 17.5216 82.1968 17.8757C82.4155 18.2247 82.715 18.5007 83.0952 18.7039C83.4806 18.9018 83.9207 19.0007 84.4155 19.0007ZM96.5464 19.7039C95.8537 19.7039 95.2235 19.5372 94.6558 19.2039C94.0881 18.8653 93.6349 18.4122 93.2964 17.8445C92.9578 17.2716 92.7886 16.6388 92.7886 15.946C92.7886 15.2585 92.9578 14.6309 93.2964 14.0632C93.6349 13.4903 94.0881 13.0372 94.6558 12.7039C95.2235 12.3653 95.8537 12.196 96.5464 12.196C97.2391 12.196 97.8693 12.3653 98.437 12.7039C99.0047 13.0372 99.4578 13.4903 99.7964 14.0632C100.135 14.6309 100.304 15.2585 100.304 15.946C100.304 16.6388 100.135 17.2716 99.7964 17.8445C99.4578 18.4122 99.0047 18.8653 98.437 19.2039C97.8693 19.5372 97.2391 19.7039 96.5464 19.7039ZM96.5464 17.7039C96.8693 17.7039 97.1636 17.6257 97.4292 17.4695C97.6948 17.3132 97.9058 17.1023 98.062 16.8367C98.2235 16.571 98.3042 16.2742 98.3042 15.946C98.3042 15.6231 98.2235 15.3289 98.062 15.0632C97.9058 14.7976 97.6948 14.5867 97.4292 14.4304C97.1636 14.2742 96.8693 14.196 96.5464 14.196C96.2235 14.196 95.9292 14.2742 95.6636 14.4304C95.3979 14.5867 95.1844 14.7976 95.0229 15.0632C94.8667 15.3289 94.7886 15.6231 94.7886 15.946C94.7886 16.269 94.8667 16.5658 95.0229 16.8367C95.1792 17.1023 95.3901 17.3132 95.6558 17.4695C95.9266 17.6257 96.2235 17.7039 96.5464 17.7039ZM116.492 17.7039H113.57C113.486 17.2247 113.333 16.8002 113.109 16.4304C112.885 16.0554 112.606 15.7377 112.273 15.4773C111.94 15.2169 111.559 15.0216 111.132 14.8914C110.71 14.7559 110.255 14.6882 109.765 14.6882C108.895 14.6882 108.125 14.907 107.453 15.3445C106.781 15.7768 106.255 16.4122 105.875 17.2507C105.494 18.0841 105.304 19.1023 105.304 20.3054C105.304 21.5294 105.494 22.5606 105.875 23.3992C106.26 24.2325 106.786 24.8627 107.453 25.2898C108.125 25.7117 108.893 25.9226 109.757 25.9226C110.236 25.9226 110.684 25.8601 111.101 25.7351C111.523 25.6049 111.901 25.4148 112.234 25.1648C112.572 24.9148 112.856 24.6075 113.085 24.2429C113.32 23.8783 113.481 23.4617 113.57 22.9929L116.492 23.0085C116.382 23.769 116.145 24.4825 115.781 25.1492C115.421 25.8158 114.95 26.4044 114.367 26.9148C113.783 27.42 113.101 27.8158 112.32 28.1023C111.539 28.3835 110.671 28.5242 109.718 28.5242C108.312 28.5242 107.057 28.1986 105.953 27.5476C104.848 26.8966 103.979 25.9565 103.343 24.7273C102.708 23.4981 102.39 22.0242 102.39 20.3054C102.39 18.5815 102.71 17.1075 103.351 15.8835C103.992 14.6544 104.864 13.7143 105.968 13.0632C107.072 12.4122 108.322 12.0867 109.718 12.0867C110.609 12.0867 111.437 12.2117 112.203 12.4617C112.968 12.7117 113.651 13.0789 114.25 13.5632C114.848 14.0424 115.341 14.6309 115.726 15.3289C116.117 16.0216 116.372 16.8132 116.492 17.7039Z" fill="black" fill-opacity="0.5"/>
<path d="M71.4056 39.2407C71.3724 38.9306 71.2328 38.6891 70.9866 38.5163C70.7427 38.3435 70.4255 38.2571 70.0348 38.2571C69.7602 38.2571 69.5247 38.2985 69.3282 38.3813C69.1317 38.4642 68.9813 38.5767 68.8772 38.7187C68.773 38.8608 68.7197 39.0229 68.7174 39.2052C68.7174 39.3567 68.7517 39.4881 68.8204 39.5994C68.8914 39.7107 68.9873 39.8054 69.108 39.8835C69.2287 39.9592 69.3625 40.0232 69.5093 40.0752C69.6561 40.1273 69.804 40.1711 69.9532 40.2066L70.635 40.3771C70.9096 40.441 71.1736 40.5274 71.4269 40.6363C71.6826 40.7452 71.911 40.8825 72.1123 41.0483C72.3159 41.214 72.4768 41.414 72.5952 41.6484C72.7136 41.8828 72.7728 42.1574 72.7728 42.4723C72.7728 42.8984 72.6639 43.2736 72.4461 43.598C72.2283 43.9199 71.9134 44.1721 71.5015 44.3544C71.0919 44.5343 70.5959 44.6242 70.0135 44.6242C69.4477 44.6242 68.9565 44.5367 68.5398 44.3615C68.1255 44.1863 67.8012 43.9306 67.5668 43.5944C67.3348 43.2582 67.2093 42.8487 67.1904 42.3657H68.4866C68.5055 42.619 68.5836 42.8297 68.7209 42.9978C68.8582 43.1659 69.037 43.2914 69.2571 43.3742C69.4797 43.4571 69.7283 43.4985 70.0029 43.4985C70.2893 43.4985 70.5403 43.4559 70.7557 43.3707C70.9735 43.2831 71.144 43.1624 71.2671 43.0085C71.3902 42.8522 71.4529 42.6699 71.4553 42.4616C71.4529 42.2722 71.3973 42.116 71.2884 41.9929C71.1795 41.8674 71.0268 41.7632 70.8303 41.6804C70.6362 41.5951 70.4089 41.5194 70.1485 41.4531L69.3211 41.24C68.7221 41.0861 68.2486 40.8529 67.9006 40.5404C67.555 40.2256 67.3821 39.8077 67.3821 39.2869C67.3821 38.8584 67.4982 38.4831 67.7302 38.1612C67.9645 37.8392 68.283 37.5894 68.6854 37.4119C69.0879 37.232 69.5436 37.142 70.0526 37.142C70.5687 37.142 71.0209 37.232 71.4091 37.4119C71.7998 37.5894 72.1063 37.8368 72.3289 38.1541C72.5514 38.4689 72.6662 38.8312 72.6733 39.2407H71.4056ZM77.3671 42.2201V39.0596H78.6526V44.5142H77.4061V43.5447H77.3493C77.2262 43.8501 77.0238 44.0999 76.7421 44.294C76.4627 44.4881 76.1182 44.5852 75.7087 44.5852C75.3512 44.5852 75.0351 44.5059 74.7605 44.3473C74.4883 44.1863 74.2752 43.9531 74.1213 43.6477C73.9674 43.3399 73.8905 42.9682 73.8905 42.5326V39.0596H75.176V42.3338C75.176 42.6794 75.2707 42.954 75.4601 43.1576C75.6495 43.3612 75.8981 43.463 76.2058 43.463C76.3952 43.463 76.5787 43.4169 76.7563 43.3245C76.9338 43.2322 77.0794 43.0949 77.193 42.9126C77.3091 42.7279 77.3671 42.4971 77.3671 42.2201ZM81.26 41.3181V44.5142H79.9745V39.0596H81.2032V39.9865H81.2671C81.3926 39.6811 81.5926 39.4384 81.8672 39.2585C82.1442 39.0786 82.4863 38.9886 82.8935 38.9886C83.2699 38.9886 83.5978 39.0691 83.8772 39.2301C84.1589 39.3911 84.3767 39.6242 84.5306 39.9296C84.6868 40.235 84.7638 40.6055 84.7614 41.0411V44.5142H83.4759V41.24C83.4759 40.8754 83.3812 40.5902 83.1918 40.3842C83.0048 40.1782 82.7455 40.0752 82.4141 40.0752C82.1892 40.0752 81.9892 40.125 81.814 40.2244C81.6411 40.3215 81.505 40.4623 81.4056 40.647C81.3085 40.8316 81.26 41.0554 81.26 41.3181ZM87.3537 41.3181V44.5142H86.0682V39.0596H87.2969V39.9865H87.3608C87.4863 39.6811 87.6864 39.4384 87.961 39.2585C88.238 39.0786 88.5801 38.9886 88.9873 38.9886C89.3637 38.9886 89.6916 39.0691 89.9709 39.2301C90.2526 39.3911 90.4705 39.6242 90.6243 39.9296C90.7806 40.235 90.8575 40.6055 90.8552 41.0411V44.5142H89.5696V41.24C89.5696 40.8754 89.4749 40.5902 89.2856 40.3842C89.0985 40.1782 88.8393 40.0752 88.5079 40.0752C88.283 40.0752 88.0829 40.125 87.9077 40.2244C87.7349 40.3215 87.5988 40.4623 87.4993 40.647C87.4023 40.8316 87.3537 41.0554 87.3537 41.3181ZM92.7657 46.5596C92.5905 46.5596 92.4283 46.5454 92.2792 46.517C92.1324 46.491 92.0152 46.4602 91.9276 46.4247L92.2259 45.4233C92.4129 45.4777 92.5798 45.5037 92.7266 45.5014C92.8734 45.499 93.0024 45.4528 93.1137 45.3629C93.2273 45.2753 93.3232 45.1285 93.4013 44.9225L93.5114 44.6278L91.5334 39.0596H92.8971L94.1542 43.1789H94.211L95.4716 39.0596H96.8388L94.6549 45.1747C94.5531 45.4635 94.4181 45.7109 94.25 45.9169C94.082 46.1252 93.876 46.2838 93.6321 46.3927C93.3907 46.504 93.1018 46.5596 92.7657 46.5596ZM102.73 44.5142H100.266V37.2414H102.78C103.502 37.2414 104.122 37.387 104.641 37.6782C105.162 37.967 105.562 38.3825 105.841 38.9247C106.12 39.4668 106.26 40.1155 106.26 40.8707C106.26 41.6283 106.119 42.2793 105.837 42.8238C105.558 43.3683 105.154 43.7862 104.626 44.0774C104.101 44.3686 103.469 44.5142 102.73 44.5142ZM101.583 43.3742H102.666C103.173 43.3742 103.595 43.2819 103.934 43.0973C104.273 42.9102 104.527 42.6321 104.697 42.2627C104.868 41.8911 104.953 41.427 104.953 40.8707C104.953 40.3143 104.868 39.8527 104.697 39.4858C104.527 39.1164 104.275 38.8406 103.941 38.6583C103.61 38.4737 103.198 38.3813 102.705 38.3813H101.583V43.3742ZM109.025 44.6242C108.679 44.6242 108.368 44.5627 108.091 44.4396C107.816 44.3141 107.598 44.1295 107.437 43.8856C107.279 43.6418 107.199 43.3411 107.199 42.9836C107.199 42.6759 107.256 42.4214 107.37 42.2201C107.483 42.0189 107.638 41.8579 107.835 41.7372C108.031 41.6164 108.253 41.5253 108.499 41.4637C108.748 41.3998 109.004 41.3536 109.27 41.3252C109.589 41.2921 109.848 41.2625 110.047 41.2365C110.246 41.2081 110.391 41.1654 110.481 41.1086C110.573 41.0494 110.619 40.9583 110.619 40.8352V40.8139C110.619 40.5464 110.54 40.3392 110.381 40.1924C110.222 40.0456 109.994 39.9723 109.696 39.9723C109.381 39.9723 109.131 40.0409 108.946 40.1782C108.764 40.3155 108.641 40.4777 108.577 40.6647L107.377 40.4943C107.472 40.1628 107.628 39.8858 107.846 39.6633C108.063 39.4384 108.33 39.2703 108.645 39.159C108.959 39.0454 109.307 38.9886 109.689 38.9886C109.951 38.9886 110.213 39.0194 110.473 39.0809C110.734 39.1425 110.972 39.2443 111.187 39.3863C111.403 39.526 111.575 39.7166 111.706 39.9581C111.838 40.1995 111.905 40.5014 111.905 40.8636V44.5142H110.669V43.7649H110.626C110.548 43.9164 110.438 44.0584 110.296 44.191C110.156 44.3212 109.98 44.4266 109.767 44.5071C109.556 44.5852 109.309 44.6242 109.025 44.6242ZM109.358 43.6796C109.616 43.6796 109.84 43.6287 110.03 43.5269C110.219 43.4228 110.365 43.2855 110.466 43.115C110.57 42.9446 110.623 42.7587 110.623 42.5575V41.9147C110.582 41.9479 110.514 41.9786 110.417 42.0071C110.322 42.0355 110.215 42.0603 110.097 42.0816C109.979 42.1029 109.861 42.1219 109.745 42.1384C109.629 42.155 109.529 42.1692 109.444 42.1811C109.252 42.2071 109.08 42.2497 108.929 42.3089C108.777 42.3681 108.658 42.4509 108.57 42.5575C108.482 42.6617 108.439 42.7966 108.439 42.9623C108.439 43.1991 108.525 43.3778 108.698 43.4985C108.871 43.6193 109.091 43.6796 109.358 43.6796ZM113.801 46.5596C113.626 46.5596 113.463 46.5454 113.314 46.517C113.168 46.491 113.05 46.4602 112.963 46.4247L113.261 45.4233C113.448 45.4777 113.615 45.5037 113.762 45.5014C113.909 45.499 114.038 45.4528 114.149 45.3629C114.262 45.2753 114.358 45.1285 114.436 44.9225L114.547 44.6278L112.569 39.0596H113.932L115.189 43.1789H115.246L116.507 39.0596H117.874L115.69 45.1747C115.588 45.4635 115.453 45.7109 115.285 45.9169C115.117 46.1252 114.911 46.2838 114.667 46.3927C114.426 46.504 114.137 46.5596 113.801 46.5596Z" fill="black" fill-opacity="0.5"/>
<path d="M25.8764 0.0598145C25.4072 0.0598145 25.0264 0.440614 25.0264 0.909814V6.00981C25.0264 6.47901 25.4072 6.85981 25.8764 6.85981C26.3456 6.85981 26.7264 6.47901 26.7264 6.00981V0.909814C26.7264 0.440614 26.3456 0.0598145 25.8764 0.0598145Z" fill="#F0C419"/>
<path d="M25.8764 44.2598C25.4072 44.2598 25.0264 44.6406 25.0264 45.1098V50.2098C25.0264 50.679 25.4072 51.0598 25.8764 51.0598C26.3456 51.0598 26.7264 50.679 26.7264 50.2098V45.1098C26.7264 44.6406 26.3456 44.2598 25.8764 44.2598Z" fill="#F0C419"/>
<path d="M50.5262 24.7098H45.4262C44.957 24.7098 44.5762 25.0906 44.5762 25.5598C44.5762 26.029 44.957 26.4098 45.4262 26.4098H50.5262C50.9954 26.4098 51.3762 26.029 51.3762 25.5598C51.3762 25.0906 50.9954 24.7098 50.5262 24.7098Z" fill="#F0C419"/>
<path d="M7.17647 25.5598C7.17647 25.0906 6.79566 24.7098 6.32647 24.7098H1.22646C0.757265 24.7098 0.376465 25.0906 0.376465 25.5598C0.376465 26.029 0.757265 26.4098 1.22646 26.4098H6.32647C6.79566 26.4098 7.17647 26.029 7.17647 25.5598Z" fill="#F0C419"/>
<path d="M39.7008 12.5855C39.9184 12.5855 40.136 12.5022 40.3017 12.3364L45.1773 7.46081C45.5097 7.12846 45.5097 6.59126 45.1773 6.25891C44.845 5.92656 44.3078 5.92656 43.9754 6.25891L39.0998 11.1345C38.7675 11.4669 38.7675 12.0041 39.0998 12.3364C39.2656 12.503 39.4832 12.5855 39.7008 12.5855Z" fill="#F0C419"/>
<path d="M11.451 38.7832L6.57543 43.6588C6.24308 43.9911 6.24308 44.5283 6.57543 44.8607C6.74118 45.0264 6.95878 45.1097 7.17638 45.1097C7.39398 45.1097 7.61158 45.0264 7.77733 44.8607L12.6529 39.9851C12.9853 39.6527 12.9853 39.1155 12.6529 38.7832C12.3206 38.4508 11.7834 38.4508 11.451 38.7832Z" fill="#F0C419"/>
<path d="M40.3017 38.7832C39.9694 38.4508 39.4322 38.4508 39.0998 38.7832C38.7675 39.1155 38.7675 39.6527 39.0998 39.9851L43.9754 44.8607C44.1412 45.0264 44.3588 45.1097 44.5764 45.1097C44.794 45.1097 45.0116 45.0264 45.1773 44.8607C45.5097 44.5283 45.5097 43.9911 45.1773 43.6588L40.3017 38.7832Z" fill="#F0C419"/>
<path d="M7.77733 6.25891C7.44498 5.92656 6.90778 5.92656 6.57543 6.25891C6.24308 6.59126 6.24308 7.12846 6.57543 7.46081L11.451 12.3364C11.6168 12.5022 11.8344 12.5855 12.052 12.5855C12.2696 12.5855 12.4872 12.5022 12.6529 12.3364C12.9853 12.0041 12.9853 11.4669 12.6529 11.1345L7.77733 6.25891Z" fill="#F0C419"/>
<path d="M43.0894 18.2533C43.2271 18.5771 43.5416 18.7718 43.8722 18.7718C43.9827 18.7718 44.0958 18.7497 44.2037 18.7038L46.5514 17.7076C46.9832 17.524 47.1855 17.025 47.0019 16.5932C46.8183 16.1614 46.3185 15.9591 45.8876 16.1427L43.5399 17.1389C43.1072 17.3225 42.9058 17.8215 43.0894 18.2533Z" fill="#F0C419"/>
<path d="M8.66295 32.8664C8.47935 32.4346 7.9804 32.2323 7.5486 32.4159L5.20091 33.4121C4.76911 33.5957 4.56681 34.0947 4.75041 34.5265C4.88811 34.8503 5.20261 35.045 5.53325 35.045C5.64376 35.045 5.7568 35.0229 5.86475 34.977L8.21246 33.9808C8.6451 33.7972 8.84655 33.2982 8.66295 32.8664Z" fill="#F0C419"/>
<path d="M46.686 33.0509L44.3221 32.0947C43.8878 31.9187 43.3914 32.1295 43.2154 32.5647C43.0395 32.9999 43.2503 33.4955 43.6855 33.6714L46.0502 34.6268C46.1547 34.6685 46.2627 34.6889 46.3681 34.6889C46.7047 34.6889 47.0234 34.4883 47.1569 34.1568C47.332 33.7224 47.122 33.2269 46.686 33.0509Z" fill="#F0C419"/>
<path d="M5.06779 18.0696L7.43164 19.025C7.53619 19.0667 7.64414 19.0871 7.74954 19.0871C8.08614 19.0871 8.40489 18.8865 8.53834 18.555C8.71429 18.1198 8.50349 17.6242 8.06829 17.4483L5.70359 16.4929C5.26754 16.3169 4.77284 16.5269 4.59689 16.9629C4.42179 17.3973 4.63174 17.8928 5.06779 18.0696Z" fill="#F0C419"/>
<path d="M34.2967 43.2236C34.1131 42.7918 33.6141 42.5904 33.1823 42.7731C32.7505 42.9567 32.5483 43.4557 32.7319 43.8875L33.728 46.2352C33.8657 46.559 34.1802 46.7537 34.5109 46.7537C34.6214 46.7537 34.7344 46.7316 34.8424 46.6857C35.2742 46.5021 35.4765 46.0031 35.2929 45.5713L34.2967 43.2236Z" fill="#F0C419"/>
<path d="M18.2389 8.41442C18.3494 8.41442 18.4625 8.39232 18.5704 8.34642C19.0022 8.16282 19.2045 7.66387 19.0209 7.23207L18.0247 4.88437C17.842 4.45172 17.343 4.24942 16.9104 4.43387C16.4786 4.61747 16.2763 5.11642 16.4599 5.54822L17.4561 7.89592C17.5929 8.21977 17.9083 8.41442 18.2389 8.41442Z" fill="#F0C419"/>
<path d="M18.8722 42.8981C18.4379 42.7238 17.9415 42.9321 17.7655 43.3681L16.8101 45.7328C16.6342 46.168 16.845 46.6636 17.2802 46.8395C17.3847 46.8812 17.4927 46.9016 17.5981 46.9016C17.9347 46.9016 18.2534 46.701 18.3869 46.3695L19.3423 44.0048C19.5182 43.5696 19.3074 43.074 18.8722 42.8981Z" fill="#F0C419"/>
<path d="M33.1992 8.28349C33.5358 8.28349 33.8545 8.08289 33.988 7.75139L34.9434 5.38669C35.1193 4.95149 34.9085 4.45594 34.4733 4.27999C34.039 4.10404 33.5426 4.31484 33.3666 4.75004L32.4112 7.11474C32.2353 7.54994 32.4461 8.04549 32.8813 8.22144C32.9858 8.26309 33.0938 8.28349 33.1992 8.28349Z" fill="#F0C419"/>
<path d="M25.877 42.5598C35.2658 42.5598 42.877 34.9487 42.877 25.5598C42.877 16.171 35.2658 8.55981 25.877 8.55981C16.4881 8.55981 8.87695 16.171 8.87695 25.5598C8.87695 34.9487 16.4881 42.5598 25.877 42.5598Z" fill="#F0C419"/>
<path d="M25.8765 38.3098C32.9181 38.3098 38.6265 32.6014 38.6265 25.5598C38.6265 18.5182 32.9181 12.8098 25.8765 12.8098C18.8348 12.8098 13.1265 18.5182 13.1265 25.5598C13.1265 32.6014 18.8348 38.3098 25.8765 38.3098Z" fill="#EDE21B"/>
</svg>
