<svg width="33" height="27" viewBox="0 0 33 27" fill="none" xmlns="http://www.w3.org/2000/svg">
<path d="M32.3231 3.38458C31.1171 3.91415 29.8379 4.26175 28.5281 4.41584C29.8925 3.6053 30.94 2.32176 31.4333 0.792448C30.1363 1.55534 28.7173 2.09285 27.2376 2.38174C26.0323 1.10894 24.3153 0.313477 22.4148 0.313477C18.7657 0.313477 15.8072 3.24591 15.8072 6.8627C15.8072 7.37609 15.8657 7.87588 15.9783 8.35535C10.4871 8.08213 5.61851 5.47479 2.3596 1.51234C1.79097 2.47963 1.46514 3.6048 1.46514 4.80491C1.46514 7.07718 2.63171 9.08173 4.40452 10.2563C3.35526 10.2237 2.32909 9.94279 1.41168 9.43699C1.4113 9.46443 1.4113 9.49186 1.4113 9.51942C1.4113 12.6927 3.68883 15.3398 6.71136 15.9414C5.73838 16.2037 4.7178 16.2421 3.72757 16.0537C4.56831 18.6557 7.0085 20.5491 9.89969 20.6021C7.63839 22.3586 4.78935 23.4057 1.69385 23.4057C1.16045 23.4057 0.634598 23.3747 0.117676 23.3142C3.0417 25.1725 6.51473 26.2567 10.246 26.2567C22.3994 26.2567 29.0452 16.2769 29.0452 7.62224C29.0452 7.33818 29.0389 7.05573 29.0261 6.77491C30.3196 5.848 31.4361 4.69993 32.3231 3.38458Z" fill="#55ACEE"/>
</svg>
