<svg width="20" height="28" viewBox="0 0 20 28" fill="none" xmlns="http://www.w3.org/2000/svg">
<path d="M13.0502 23.6506L15.0249 25.6253L18.9743 21.6759M9.86724 27.2363C7.50277 27.2363 5.1513 26.6387 3.35846 25.4435C0.214498 23.3388 0.214498 19.9091 3.35846 17.8174C6.93114 15.427 12.7903 15.427 16.363 17.8174M10.0881 13.0235C9.95818 13.0105 9.80228 13.0105 9.65937 13.0235C8.1682 12.9729 6.75529 12.3439 5.71984 11.2696C4.6844 10.1954 4.10773 8.76028 4.11197 7.26826C4.10992 6.51128 4.25729 5.76134 4.54563 5.06142C4.83397 4.3615 5.25762 3.72538 5.79228 3.18951C6.32695 2.65363 6.96212 2.22856 7.66138 1.93864C8.36064 1.64872 9.11025 1.49966 9.86724 1.5C13.0502 1.5 15.6355 4.08532 15.6355 7.26826C15.6355 10.3862 13.1671 12.9196 10.0881 13.0235Z" stroke="#1E1E1E" stroke-opacity="0.5" stroke-width="1.5" stroke-miterlimit="10" stroke-linecap="round" stroke-linejoin="round"/>
</svg>
