<svg width="30" height="26" viewBox="0 0 30 26" fill="none" xmlns="http://www.w3.org/2000/svg">
<path d="M16.8328 10.3254C18.8 10.3254 19.903 10.3254 21.8703 10.3254M7.47748 18.2415H21.8703M8.19712 1.68976H21.1506C21.1506 1.68976 22.8346 1.71854 23.5398 1.81929C27.3251 2.23668 28.347 4.02139 28.347 8.88615V17.5218C28.347 22.3866 27.3251 24.1713 23.5398 24.5887C22.8346 24.6894 22.043 24.7182 21.1506 24.7182H8.19712C7.30477 24.7182 6.51317 24.6894 5.80792 24.5887C2.02262 24.1713 1.00073 22.3866 1.00073 17.5218V8.88615C1.00073 4.02139 2.02262 2.23668 5.80792 1.81929C6.51317 1.71854 7.30477 1.68976 8.19712 1.68976Z" stroke="#1E1E1E" stroke-opacity="0.5" stroke-width="1.5" stroke-miterlimit="10" stroke-linecap="round" stroke-linejoin="round"/>
<path d="M11.9321 10.3254H11.945M7.61426 10.3254H7.62721" stroke="#1E1E1E" stroke-opacity="0.5" stroke-width="1.5" stroke-miterlimit="10" stroke-linecap="round" stroke-linejoin="round"/>
</svg>
