<svg width="27" height="26" viewBox="0 0 27 26" fill="none" xmlns="http://www.w3.org/2000/svg">
<path d="M25.6547 11.1108L24.4438 16.2761C23.4058 20.737 21.3545 22.5411 17.4991 22.1704C16.8812 22.121 16.214 22.0097 15.4973 21.8367L13.4213 21.3425C8.26839 20.1191 6.67433 17.5736 7.88532 12.4083L9.09631 7.23073C9.34345 6.18038 9.64002 5.26596 10.0107 4.51218C11.4565 1.52177 13.9156 0.718567 18.0428 1.69477L20.1064 2.1767C25.284 3.38769 26.8657 5.94559 25.6547 11.1108Z" stroke="#848484" stroke-width="1.5" stroke-miterlimit="10" stroke-linecap="round" stroke-linejoin="round"/>
<path d="M14.5085 8.75067L20.5016 10.2706M13.2975 13.5328L16.881 14.4473M17.4989 22.1704C16.7327 22.6894 15.7689 23.1219 14.595 23.505L12.6426 24.1475C7.73681 25.7292 5.15419 24.407 3.56013 19.5013L1.97843 14.6203C0.396729 9.71452 1.70657 7.11954 6.61232 5.53784L8.56473 4.89528C9.07137 4.73463 9.55329 4.59871 10.0105 4.51221C9.63979 5.26599 9.34322 6.18041 9.09608 7.23076L7.88509 12.4084C6.6741 17.5736 8.26816 20.1191 13.421 21.3425L15.497 21.8368C16.2137 22.0098 16.881 22.121 17.4989 22.1704Z" stroke="#848484" stroke-width="1.5" stroke-miterlimit="10" stroke-linecap="round" stroke-linejoin="round"/>
</svg>
