<svg width="26" height="28" viewBox="0 0 26 28" fill="none" xmlns="http://www.w3.org/2000/svg">
<path d="M1.65001 10.3666H23.7338H1.65001ZM24.3833 10.3666V20.6421C24.3833 24.5392 22.4347 27.1373 17.8881 27.1373H7.49571C2.94906 27.1373 1.00049 24.5392 1.00049 20.6421C1.00049 20.6421 1.00049 14.3794 1.00049 10.3666H24.3833Z" fill="white"/>
<path d="M7.49571 1.15643V5.05357M17.8881 1.15643V5.05357M1.65001 10.3667H23.7338M24.3833 9.60023V20.6421C24.3833 24.5392 22.4347 27.1373 17.8881 27.1373H7.49571C2.94906 27.1373 1.00049 24.5392 1.00049 20.6421V9.60023C1.00049 5.70309 2.94906 3.105 7.49571 3.105H17.8881C22.4347 3.105 24.3833 5.70309 24.3833 9.60023Z" stroke="white" stroke-width="1.5" stroke-miterlimit="10" stroke-linecap="round" stroke-linejoin="round"/>
<path d="M17.4917 16.3553H17.5034M17.4917 20.2524H17.5034M12.6852 16.3553H12.6982M12.6852 20.2524H12.6982M7.87744 16.3553H7.89043M7.87744 20.2524H7.89043" stroke="#FF4A4A" stroke-width="1.5" stroke-miterlimit="10" stroke-linecap="round" stroke-linejoin="round"/>
</svg>
