<svg width="20" height="28" viewBox="0 0 20 28" fill="none" xmlns="http://www.w3.org/2000/svg">
<path d="M13.0497 22.9482L15.0244 24.923L18.9738 20.9735M9.86675 26.5339C7.50228 26.5339 5.15081 25.9363 3.35797 24.7411C0.21401 22.6364 0.21401 19.2067 3.35797 17.115C6.93065 14.7246 12.7899 14.7246 16.3625 17.115M10.0876 12.3211C9.95769 12.3081 9.80179 12.3081 9.65888 12.3211C8.16771 12.2705 6.7548 11.6415 5.71936 10.5672C4.68391 9.49297 4.10725 8.05789 4.11148 6.56587C4.10943 5.80889 4.2568 5.05894 4.54514 4.35903C4.83348 3.65911 5.25713 3.02298 5.79179 2.48711C6.32646 1.95124 6.96163 1.52616 7.66089 1.23624C8.36016 0.946323 9.10976 0.797263 9.86675 0.797608C13.0497 0.797608 15.635 3.38293 15.635 6.56587C15.635 9.68384 13.1666 12.2172 10.0876 12.3211Z" stroke="white" stroke-width="1.5" stroke-miterlimit="10" stroke-linecap="round" stroke-linejoin="round"/>
<path d="M10.0875 12.3211C9.95756 12.3081 9.80166 12.3081 9.65875 12.3211C8.16758 12.2705 6.75467 11.6415 5.71923 10.5672C4.68378 9.49297 4.10712 8.05789 4.11135 6.56587C4.1093 5.80889 4.25667 5.05894 4.54501 4.35903C4.83335 3.65911 5.257 3.02298 5.79166 2.48711C6.32633 1.95124 6.9615 1.52616 7.66076 1.23624C8.36002 0.946323 9.10963 0.797263 9.86662 0.797608C13.0496 0.797608 15.6349 3.38293 15.6349 6.56587C15.6349 9.68384 13.1665 12.2172 10.0875 12.3211Z" fill="white"/>
</svg>
