<svg width="27" height="26" viewBox="0 0 27 26" fill="none" xmlns="http://www.w3.org/2000/svg">
<path d="M25.6547 10.6174L24.4438 15.7826C23.4058 20.2435 21.3545 22.0476 17.4991 21.6769C16.8812 21.6275 16.214 21.5163 15.4973 21.3433L13.4213 20.849C8.26839 19.6256 6.67433 17.0801 7.88532 11.9149L9.09631 6.73726C9.34345 5.68691 9.64002 4.77249 10.0107 4.01871C11.4565 1.0283 13.9156 0.225097 18.0428 1.2013L20.1064 1.68323C25.284 2.89422 26.8657 5.45212 25.6547 10.6174Z" fill="white"/>
<path d="M17.4989 21.6769C16.7327 22.1959 15.7689 22.6284 14.595 23.0115L12.6426 23.6541C7.73681 25.2358 5.15419 23.9136 3.56013 19.0078L1.97843 14.1268C0.396729 9.22105 1.70657 6.62607 6.61232 5.04437L8.56473 4.40181C9.07137 4.24116 9.55329 4.10524 10.0105 4.01874C9.63979 4.77252 9.34322 5.68694 9.09608 6.73729L7.88509 11.9149C6.6741 17.0801 8.26816 19.6257 13.421 20.849L15.497 21.3433C16.2137 21.5163 16.881 21.6275 17.4989 21.6769Z" stroke="white" stroke-width="1.5" stroke-miterlimit="10" stroke-linecap="round" stroke-linejoin="round"/>
<path d="M14.5084 8.2572L20.5015 9.77712M13.2974 13.0394L16.8809 13.9538" stroke="#FF4A4A" stroke-width="1.5" stroke-miterlimit="10" stroke-linecap="round" stroke-linejoin="round"/>
</svg>
