<svg width="30" height="26" viewBox="0 0 30 26" fill="none" xmlns="http://www.w3.org/2000/svg">
<path d="M8.197 1.68976H21.1505C21.1505 1.68976 22.8345 1.71854 23.5397 1.81929C27.325 2.23668 28.3469 4.02139 28.3469 8.88615V17.5218C28.3469 22.3866 27.325 24.1713 23.5397 24.5887C22.8345 24.6894 22.0429 24.7182 21.1505 24.7182H8.197C7.30465 24.7182 6.51304 24.6894 5.8078 24.5887C2.0225 24.1713 1.00061 22.3866 1.00061 17.5218V8.88615C1.00061 4.02139 2.0225 2.23668 5.8078 1.81929C6.51304 1.71854 7.30465 1.68976 8.197 1.68976ZM16.8327 10.3254C18.7999 10.3254 19.9029 10.3254 21.8701 10.3254H16.8327ZM7.47736 18.2415H21.8701H7.47736Z" fill="white"/>
<path d="M16.8327 10.3254C18.7999 10.3254 19.9029 10.3254 21.8701 10.3254M7.47736 18.2415H21.8701M8.197 1.68976H21.1505C21.1505 1.68976 22.8345 1.71854 23.5397 1.81929C27.325 2.23668 28.3469 4.02139 28.3469 8.88615V17.5218C28.3469 22.3866 27.325 24.1713 23.5397 24.5887C22.8345 24.6894 22.0429 24.7182 21.1505 24.7182H8.197C7.30465 24.7182 6.51304 24.6894 5.8078 24.5887C2.0225 24.1713 1.00061 22.3866 1.00061 17.5218V8.88615C1.00061 4.02139 2.0225 2.23668 5.8078 1.81929C6.51304 1.71854 7.30465 1.68976 8.197 1.68976Z" stroke="#FF4A4A" stroke-width="1.5" stroke-linecap="round" stroke-linejoin="round"/>
<path d="M11.932 10.3254H11.9449M7.61414 10.3254H7.62709" stroke="#FF4A4A" stroke-width="2" stroke-linecap="round" stroke-linejoin="round"/>
</svg>
