<svg width="36" height="41" viewBox="0 0 36 41" fill="none" xmlns="http://www.w3.org/2000/svg">
<path d="M10.7334 20.7517H23.7875M10.7334 28.2112H18.9015M14.4631 9.18957H21.9226C25.6523 9.18957 25.6523 7.3247 25.6523 5.45984C25.6523 1.7301 23.7875 1.7301 21.9226 1.7301H14.4631C12.5983 1.7301 10.7334 1.7301 10.7334 5.45984C10.7334 9.18957 12.5983 9.18957 14.4631 9.18957Z" stroke="#FF4A4A" stroke-width="2" stroke-miterlimit="10" stroke-linecap="round" stroke-linejoin="round"/>
<path d="M25.6523 5.49719C31.8623 5.83287 34.9767 8.12665 34.9767 16.6491V27.8383C34.9767 35.2978 33.1118 39.0275 23.7875 39.0275H12.5983C3.27392 39.0275 1.40906 35.2978 1.40906 27.8383V16.6491C1.40906 8.1453 4.52338 5.83287 10.7334 5.49719" stroke="black" stroke-width="2" stroke-miterlimit="10" stroke-linecap="round" stroke-linejoin="round"/>
</svg>
