<svg width="119" height="51" viewBox="0 0 119 51" fill="none" xmlns="http://www.w3.org/2000/svg">
<path d="M74.4297 12.2457V28.2457H71.5313V15.066H71.4375L67.6953 17.4566V14.8004L71.6719 12.2457H74.4297ZM84.1797 28.4644C83.0182 28.4644 81.987 28.2691 81.0859 27.8785C80.1901 27.4879 79.487 26.954 78.9766 26.2769C78.4714 25.5946 78.2214 24.8212 78.2266 23.9566C78.2214 23.2847 78.3672 22.6675 78.6641 22.105C78.9609 21.5425 79.362 21.0738 79.8672 20.6988C80.3776 20.3186 80.9453 20.0764 81.5703 19.9722V19.8629C80.7474 19.6806 80.0807 19.2613 79.5703 18.605C79.0651 17.9436 78.8151 17.1806 78.8203 16.316C78.8151 15.4931 79.0443 14.7587 79.5078 14.1129C79.9714 13.467 80.6068 12.9592 81.4141 12.5894C82.2214 12.2144 83.1432 12.0269 84.1797 12.0269C85.2057 12.0269 86.1198 12.2144 86.9219 12.5894C87.7292 12.9592 88.3646 13.467 88.8281 14.1129C89.2969 14.7587 89.5312 15.4931 89.5312 16.316C89.5312 17.1806 89.2734 17.9436 88.7578 18.605C88.2474 19.2613 87.5885 19.6806 86.7812 19.8629V19.9722C87.4063 20.0764 87.9688 20.3186 88.4688 20.6988C88.974 21.0738 89.375 21.5425 89.6719 22.105C89.974 22.6675 90.125 23.2847 90.125 23.9566C90.125 24.8212 89.8698 25.5946 89.3594 26.2769C88.849 26.954 88.1458 27.4879 87.25 27.8785C86.3594 28.2691 85.3359 28.4644 84.1797 28.4644ZM84.1797 26.23C84.7786 26.23 85.2995 26.1285 85.7422 25.9254C86.1849 25.717 86.5286 25.4254 86.7734 25.0504C87.0182 24.6754 87.1432 24.2431 87.1484 23.7535C87.1432 23.2431 87.0104 22.7925 86.75 22.4019C86.4948 22.0061 86.1432 21.6962 85.6953 21.4722C85.2526 21.2483 84.7474 21.1363 84.1797 21.1363C83.6068 21.1363 83.0964 21.2483 82.6484 21.4722C82.2005 21.6962 81.8464 22.0061 81.5859 22.4019C81.3307 22.7925 81.2057 23.2431 81.2109 23.7535C81.2057 24.2431 81.3255 24.6754 81.5703 25.0504C81.8151 25.4201 82.1589 25.7092 82.6016 25.9175C83.0495 26.1259 83.5755 26.23 84.1797 26.23ZM84.1797 18.941C84.6693 18.941 85.1016 18.842 85.4766 18.6441C85.8568 18.4462 86.1563 18.1701 86.375 17.816C86.5938 17.4618 86.7057 17.053 86.7109 16.5894C86.7057 16.1311 86.5964 15.73 86.3828 15.3863C86.1693 15.0373 85.8724 14.7691 85.4922 14.5816C85.112 14.3889 84.6745 14.2925 84.1797 14.2925C83.6745 14.2925 83.2292 14.3889 82.8438 14.5816C82.4635 14.7691 82.1667 15.0373 81.9531 15.3863C81.7448 15.73 81.6432 16.1311 81.6484 16.5894C81.6432 17.053 81.7474 17.4618 81.9609 17.816C82.1797 18.1649 82.4792 18.441 82.8594 18.6441C83.2448 18.842 83.6849 18.941 84.1797 18.941ZM96.3105 19.6441C95.6178 19.6441 94.9876 19.4774 94.4199 19.1441C93.8522 18.8056 93.3991 18.3524 93.0605 17.7847C92.722 17.2118 92.5527 16.579 92.5527 15.8863C92.5527 15.1988 92.722 14.5712 93.0605 14.0035C93.3991 13.4306 93.8522 12.9774 94.4199 12.6441C94.9876 12.3056 95.6178 12.1363 96.3105 12.1363C97.0033 12.1363 97.6335 12.3056 98.2012 12.6441C98.7689 12.9774 99.222 13.4306 99.5605 14.0035C99.8991 14.5712 100.068 15.1988 100.068 15.8863C100.068 16.579 99.8991 17.2118 99.5605 17.7847C99.222 18.3524 98.7689 18.8056 98.2012 19.1441C97.6335 19.4774 97.0033 19.6441 96.3105 19.6441ZM96.3105 17.6441C96.6335 17.6441 96.9277 17.566 97.1934 17.4097C97.459 17.2535 97.6699 17.0425 97.8262 16.7769C97.9876 16.5113 98.0684 16.2144 98.0684 15.8863C98.0684 15.5634 97.9876 15.2691 97.8262 15.0035C97.6699 14.7379 97.459 14.5269 97.1934 14.3707C96.9277 14.2144 96.6335 14.1363 96.3105 14.1363C95.9876 14.1363 95.6934 14.2144 95.4277 14.3707C95.1621 14.5269 94.9486 14.7379 94.7871 15.0035C94.6309 15.2691 94.5527 15.5634 94.5527 15.8863C94.5527 16.2092 94.6309 16.5061 94.7871 16.7769C94.9434 17.0425 95.1543 17.2535 95.4199 17.4097C95.6908 17.566 95.9876 17.6441 96.3105 17.6441ZM116.256 17.6441H113.334C113.251 17.1649 113.097 16.7405 112.873 16.3707C112.649 15.9957 112.37 15.678 112.037 15.4175C111.704 15.1571 111.324 14.9618 110.896 14.8316C110.475 14.6962 110.019 14.6285 109.529 14.6285C108.66 14.6285 107.889 14.8472 107.217 15.2847C106.545 15.717 106.019 16.3524 105.639 17.191C105.258 18.0243 105.068 19.0425 105.068 20.2457C105.068 21.4696 105.258 22.5009 105.639 23.3394C106.024 24.1727 106.55 24.803 107.217 25.23C107.889 25.6519 108.657 25.8629 109.521 25.8629C110.001 25.8629 110.449 25.8004 110.865 25.6754C111.287 25.5451 111.665 25.355 111.998 25.105C112.337 24.855 112.62 24.5477 112.85 24.1832C113.084 23.8186 113.245 23.4019 113.334 22.9332L116.256 22.9488C116.146 23.7092 115.91 24.4227 115.545 25.0894C115.186 25.7561 114.714 26.3446 114.131 26.855C113.548 27.3602 112.865 27.7561 112.084 28.0425C111.303 28.3238 110.436 28.4644 109.482 28.4644C108.076 28.4644 106.821 28.1389 105.717 27.4879C104.613 26.8368 103.743 25.8967 103.107 24.6675C102.472 23.4384 102.154 21.9644 102.154 20.2457C102.154 18.5217 102.475 17.0477 103.115 15.8238C103.756 14.5946 104.628 13.6545 105.732 13.0035C106.837 12.3524 108.087 12.0269 109.482 12.0269C110.373 12.0269 111.201 12.1519 111.967 12.4019C112.732 12.6519 113.415 13.0191 114.014 13.5035C114.613 13.9826 115.105 14.5712 115.49 15.2691C115.881 15.9618 116.136 16.7535 116.256 17.6441Z" fill="black" fill-opacity="0.5"/>
<path d="M71.1697 39.1808C71.1366 38.8707 70.9969 38.6292 70.7507 38.4564C70.5069 38.2836 70.1896 38.1972 69.799 38.1972C69.5244 38.1972 69.2888 38.2386 69.0923 38.3215C68.8958 38.4043 68.7455 38.5168 68.6413 38.6588C68.5372 38.8009 68.4839 38.963 68.4815 39.1453C68.4815 39.2969 68.5159 39.4282 68.5845 39.5395C68.6555 39.6508 68.7514 39.7455 68.8722 39.8236C68.9929 39.8994 69.1267 39.9633 69.2734 40.0154C69.4202 40.0674 69.5682 40.1112 69.7173 40.1468L70.3991 40.3172C70.6738 40.3811 70.9377 40.4675 71.1911 40.5764C71.4467 40.6853 71.6752 40.8227 71.8764 40.9884C72.08 41.1541 72.241 41.3541 72.3594 41.5885C72.4777 41.8229 72.5369 42.0975 72.5369 42.4124C72.5369 42.8385 72.428 43.2138 72.2102 43.5381C71.9924 43.8601 71.6776 44.1122 71.2656 44.2945C70.8561 44.4744 70.3601 44.5644 69.7777 44.5644C69.2119 44.5644 68.7206 44.4768 68.304 44.3016C67.8897 44.1264 67.5653 43.8707 67.331 43.5345C67.099 43.1984 66.9735 42.7888 66.9545 42.3058H68.2507C68.2696 42.5592 68.3478 42.7699 68.4851 42.9379C68.6224 43.106 68.8011 43.2315 69.0213 43.3144C69.2438 43.3972 69.4924 43.4387 69.767 43.4387C70.0535 43.4387 70.3045 43.396 70.5199 43.3108C70.7377 43.2232 70.9081 43.1025 71.0312 42.9486C71.1544 42.7924 71.2171 42.6101 71.2195 42.4017C71.2171 42.2123 71.1615 42.0561 71.0526 41.933C70.9437 41.8075 70.791 41.7033 70.5945 41.6205C70.4003 41.5353 70.1731 41.4595 69.9126 41.3932L69.0852 41.1801C68.4863 41.0263 68.0128 40.7931 67.6648 40.4806C67.3191 40.1657 67.1463 39.7478 67.1463 39.227C67.1463 38.7985 67.2623 38.4233 67.4943 38.1013C67.7287 37.7793 68.0471 37.5296 68.4496 37.352C68.852 37.1721 69.3078 37.0821 69.8168 37.0821C70.3329 37.0821 70.785 37.1721 71.1733 37.352C71.5639 37.5296 71.8705 37.777 72.093 38.0942C72.3156 38.4091 72.4304 38.7713 72.4375 39.1808H71.1697ZM77.1312 42.1603V38.9997H78.4167V44.4543H77.1703V43.4848H77.1135C76.9904 43.7902 76.7879 44.04 76.5062 44.2341C76.2269 44.4282 75.8824 44.5253 75.4728 44.5253C75.1154 44.5253 74.7993 44.446 74.5247 44.2874C74.2524 44.1264 74.0394 43.8932 73.8855 43.5878C73.7316 43.28 73.6547 42.9084 73.6547 42.4728V38.9997H74.9402V42.2739C74.9402 42.6195 75.0349 42.8942 75.2243 43.0978C75.4136 43.3013 75.6622 43.4031 75.97 43.4031C76.1594 43.4031 76.3429 43.357 76.5204 43.2647C76.698 43.1723 76.8436 43.035 76.9572 42.8527C77.0732 42.6681 77.1312 42.4372 77.1312 42.1603ZM81.0241 41.2583V44.4543H79.7386V38.9997H80.9673V39.9266H81.0312C81.1567 39.6212 81.3568 39.3785 81.6314 39.1986C81.9084 39.0187 82.2505 38.9287 82.6577 38.9287C83.0341 38.9287 83.362 39.0092 83.6413 39.1702C83.9231 39.3312 84.1409 39.5644 84.2947 39.8698C84.451 40.1752 84.5279 40.5457 84.5256 40.9813V44.4543H83.2401V41.1801C83.2401 40.8156 83.1454 40.5303 82.956 40.3243C82.7689 40.1183 82.5097 40.0154 82.1783 40.0154C81.9534 40.0154 81.7533 40.0651 81.5781 40.1645C81.4053 40.2616 81.2692 40.4024 81.1697 40.5871C81.0727 40.7718 81.0241 40.9955 81.0241 41.2583ZM87.1179 41.2583V44.4543H85.8324V38.9997H87.0611V39.9266H87.125C87.2505 39.6212 87.4505 39.3785 87.7251 39.1986C88.0021 39.0187 88.3442 38.9287 88.7514 38.9287C89.1278 38.9287 89.4557 39.0092 89.7351 39.1702C90.0168 39.3312 90.2346 39.5644 90.3885 39.8698C90.5447 40.1752 90.6217 40.5457 90.6193 40.9813V44.4543H89.3338V41.1801C89.3338 40.8156 89.2391 40.5303 89.0497 40.3243C88.8627 40.1183 88.6035 40.0154 88.272 40.0154C88.0471 40.0154 87.8471 40.0651 87.6719 40.1645C87.4991 40.2616 87.3629 40.4024 87.2635 40.5871C87.1664 40.7718 87.1179 40.9955 87.1179 41.2583ZM92.5298 46.4997C92.3546 46.4997 92.1925 46.4855 92.0433 46.4571C91.8965 46.4311 91.7794 46.4003 91.6918 46.3648L91.9901 45.3634C92.1771 45.4178 92.344 45.4439 92.4908 45.4415C92.6375 45.4391 92.7666 45.393 92.8778 45.303C92.9915 45.2154 93.0874 45.0686 93.1655 44.8627L93.2756 44.5679L91.2976 38.9997H92.6612L93.9183 43.1191H93.9751L95.2358 38.9997H96.603L94.419 45.1148C94.3172 45.4036 94.1823 45.651 94.0142 45.857C93.8461 46.0653 93.6402 46.2239 93.3963 46.3328C93.1548 46.4441 92.866 46.4997 92.5298 46.4997ZM102.494 44.4543H100.03V37.1816H102.544C103.266 37.1816 103.886 37.3272 104.405 37.6183C104.926 37.9072 105.326 38.3227 105.605 38.8648C105.884 39.4069 106.024 40.0556 106.024 40.8108C106.024 41.5684 105.883 42.2194 105.602 42.7639C105.322 43.3085 104.919 43.7263 104.391 44.0175C103.865 44.3087 103.233 44.4543 102.494 44.4543ZM101.347 43.3144H102.43C102.937 43.3144 103.36 43.222 103.698 43.0374C104.037 42.8504 104.291 42.5722 104.462 42.2029C104.632 41.8312 104.717 41.3672 104.717 40.8108C104.717 40.2545 104.632 39.7928 104.462 39.4259C104.291 39.0566 104.039 38.7808 103.705 38.5985C103.374 38.4138 102.962 38.3215 102.469 38.3215H101.347V43.3144ZM108.789 44.5644C108.443 44.5644 108.132 44.5028 107.855 44.3797C107.58 44.2542 107.362 44.0696 107.201 43.8257C107.043 43.5819 106.963 43.2812 106.963 42.9237C106.963 42.616 107.02 42.3615 107.134 42.1603C107.248 41.959 107.403 41.798 107.599 41.6773C107.796 41.5566 108.017 41.4654 108.263 41.4039C108.512 41.3399 108.769 41.2938 109.034 41.2654C109.353 41.2322 109.613 41.2026 109.811 41.1766C110.01 41.1482 110.155 41.1056 110.245 41.0487C110.337 40.9896 110.383 40.8984 110.383 40.7753V40.754C110.383 40.4865 110.304 40.2793 110.145 40.1326C109.987 39.9858 109.758 39.9124 109.46 39.9124C109.145 39.9124 108.895 39.981 108.711 40.1183C108.528 40.2557 108.405 40.4178 108.341 40.6049L107.141 40.4344C107.236 40.103 107.392 39.826 107.61 39.6034C107.828 39.3785 108.094 39.2104 108.409 39.0992C108.724 38.9855 109.072 38.9287 109.453 38.9287C109.716 38.9287 109.977 38.9595 110.238 39.021C110.498 39.0826 110.736 39.1844 110.951 39.3264C111.167 39.4661 111.34 39.6567 111.47 39.8982C111.602 40.1397 111.669 40.4415 111.669 40.8037V44.4543H110.433V43.705H110.39C110.312 43.8565 110.202 43.9986 110.06 44.1311C109.92 44.2613 109.744 44.3667 109.531 44.4472C109.32 44.5253 109.073 44.5644 108.789 44.5644ZM109.123 43.6198C109.381 43.6198 109.604 43.5689 109.794 43.4671C109.983 43.3629 110.129 43.2256 110.23 43.0551C110.335 42.8847 110.387 42.6988 110.387 42.4976V41.8549C110.346 41.888 110.278 41.9188 110.181 41.9472C110.086 41.9756 109.98 42.0004 109.861 42.0218C109.743 42.0431 109.626 42.062 109.51 42.0786C109.394 42.0951 109.293 42.1094 109.208 42.1212C109.016 42.1472 108.844 42.1898 108.693 42.249C108.541 42.3082 108.422 42.3911 108.334 42.4976C108.247 42.6018 108.203 42.7367 108.203 42.9024C108.203 43.1392 108.289 43.3179 108.462 43.4387C108.635 43.5594 108.855 43.6198 109.123 43.6198ZM113.565 46.4997C113.39 46.4997 113.228 46.4855 113.078 46.4571C112.932 46.4311 112.815 46.4003 112.727 46.3648L113.025 45.3634C113.212 45.4178 113.379 45.4439 113.526 45.4415C113.673 45.4391 113.802 45.393 113.913 45.303C114.027 45.2154 114.123 45.0686 114.201 44.8627L114.311 44.5679L112.333 38.9997H113.696L114.953 43.1191H115.01L116.271 38.9997H117.638L115.454 45.1148C115.352 45.4036 115.217 45.651 115.049 45.857C114.881 46.0653 114.675 46.2239 114.431 46.3328C114.19 46.4441 113.901 46.4997 113.565 46.4997Z" fill="black" fill-opacity="0.5"/>
<path d="M25.641 0C25.1718 0 24.791 0.3808 24.791 0.85V5.95C24.791 6.4192 25.1718 6.8 25.641 6.8C26.1102 6.8 26.491 6.4192 26.491 5.95V0.85C26.491 0.3808 26.1102 0 25.641 0Z" fill="#F0C419"/>
<path d="M25.641 44.2C25.1718 44.2 24.791 44.5808 24.791 45.05V50.15C24.791 50.6192 25.1718 51 25.641 51C26.1102 51 26.491 50.6192 26.491 50.15V45.05C26.491 44.5808 26.1102 44.2 25.641 44.2Z" fill="#F0C419"/>
<path d="M50.2898 24.65H45.1898C44.7206 24.65 44.3398 25.0308 44.3398 25.5C44.3398 25.9692 44.7206 26.35 45.1898 26.35H50.2898C50.759 26.35 51.1398 25.9692 51.1398 25.5C51.1398 25.0308 50.759 24.65 50.2898 24.65Z" fill="#F0C419"/>
<path d="M6.94063 25.5C6.94063 25.0308 6.55982 24.65 6.09063 24.65H0.990625C0.521425 24.65 0.140625 25.0308 0.140625 25.5C0.140625 25.9692 0.521425 26.35 0.990625 26.35H6.09063C6.55982 26.35 6.94063 25.9692 6.94063 25.5Z" fill="#F0C419"/>
<path d="M39.4654 12.5256C39.683 12.5256 39.9006 12.4423 40.0664 12.2765L44.942 7.40093C45.2743 7.06858 45.2743 6.53138 44.942 6.19903C44.6096 5.86668 44.0724 5.86668 43.7401 6.19903L38.8645 11.0746C38.5321 11.407 38.5321 11.9442 38.8645 12.2765C39.0302 12.4431 39.2478 12.5256 39.4654 12.5256Z" fill="#F0C419"/>
<path d="M11.2147 38.7234L6.33911 43.599C6.00676 43.9313 6.00676 44.4685 6.33911 44.8009C6.50486 44.9666 6.72246 45.0499 6.94006 45.0499C7.15766 45.0499 7.37526 44.9666 7.54101 44.8009L12.4166 39.9253C12.749 39.5929 12.749 39.0557 12.4166 38.7234C12.0843 38.391 11.5471 38.391 11.2147 38.7234Z" fill="#F0C419"/>
<path d="M40.0664 38.7234C39.734 38.391 39.1968 38.391 38.8645 38.7234C38.5321 39.0557 38.5321 39.5929 38.8645 39.9253L43.7401 44.8009C43.9058 44.9666 44.1234 45.0499 44.341 45.0499C44.5586 45.0499 44.7762 44.9666 44.942 44.8009C45.2743 44.4685 45.2743 43.9313 44.942 43.599L40.0664 38.7234Z" fill="#F0C419"/>
<path d="M7.54101 6.19903C7.20866 5.86668 6.67146 5.86668 6.33911 6.19903C6.00676 6.53138 6.00676 7.06858 6.33911 7.40093L11.2147 12.2765C11.3805 12.4423 11.5981 12.5256 11.8157 12.5256C12.0333 12.5256 12.2509 12.4423 12.4166 12.2765C12.749 11.9442 12.749 11.407 12.4166 11.0746L7.54101 6.19903Z" fill="#F0C419"/>
<path d="M42.8531 18.1934C42.9908 18.5173 43.3053 18.7119 43.6359 18.7119C43.7464 18.7119 43.8595 18.6898 43.9674 18.6439L46.3151 17.6477C46.7469 17.4641 46.9492 16.9652 46.7656 16.5334C46.582 16.1016 46.0822 15.8993 45.6513 16.0829L43.3036 17.0791C42.8709 17.2627 42.6695 17.7616 42.8531 18.1934Z" fill="#F0C419"/>
<path d="M8.4276 32.8066C8.244 32.3748 7.74505 32.1725 7.31325 32.3561L4.96555 33.3523C4.53375 33.5359 4.33145 34.0349 4.51505 34.4667C4.65275 34.7905 4.96725 34.9852 5.2979 34.9852C5.4084 34.9852 5.52145 34.9631 5.6294 34.9172L7.9771 33.921C8.40975 33.7374 8.6112 33.2384 8.4276 32.8066Z" fill="#F0C419"/>
<path d="M46.4506 32.9911L44.0868 32.0348C43.6524 31.8589 43.156 32.0697 42.9801 32.5049C42.8041 32.9401 43.0149 33.4356 43.4501 33.6116L45.8148 34.567C45.9194 34.6086 46.0273 34.629 46.1327 34.629C46.4693 34.629 46.7881 34.4284 46.9215 34.0969C47.0966 33.6626 46.8867 33.167 46.4506 32.9911Z" fill="#F0C419"/>
<path d="M4.83146 18.0098L7.19531 18.9652C7.29986 19.0069 7.40781 19.0273 7.51321 19.0273C7.84981 19.0273 8.16856 18.8267 8.30201 18.4952C8.47796 18.06 8.26716 17.5644 7.83196 17.3885L5.46726 16.4331C5.03121 16.2571 4.53651 16.4671 4.36056 16.9031C4.18546 17.3375 4.39541 17.833 4.83146 18.0098Z" fill="#F0C419"/>
<path d="M34.0604 43.1639C33.8768 42.7321 33.3778 42.5306 32.946 42.7134C32.5142 42.897 32.3119 43.3959 32.4955 43.8277L33.4917 46.1754C33.6294 46.4993 33.9439 46.6939 34.2746 46.6939C34.3851 46.6939 34.4981 46.6718 34.6061 46.6259C35.0379 46.4423 35.2402 45.9434 35.0566 45.5116L34.0604 43.1639Z" fill="#F0C419"/>
<path d="M18.0031 8.3546C18.1136 8.3546 18.2266 8.3325 18.3346 8.2866C18.7664 8.103 18.9687 7.60405 18.7851 7.17225L17.7889 4.82455C17.6061 4.3919 17.1072 4.1896 16.6745 4.37405C16.2427 4.55765 16.0404 5.0566 16.224 5.4884L17.2202 7.8361C17.3571 8.15995 17.6724 8.3546 18.0031 8.3546Z" fill="#F0C419"/>
<path d="M18.6359 42.8383C18.2016 42.664 17.7052 42.8723 17.5292 43.3083L16.5738 45.673C16.3979 46.1082 16.6087 46.6038 17.0439 46.7797C17.1484 46.8214 17.2564 46.8418 17.3618 46.8418C17.6984 46.8418 18.0171 46.6412 18.1506 46.3097L19.106 43.945C19.2819 43.5098 19.0711 43.0142 18.6359 42.8383Z" fill="#F0C419"/>
<path d="M32.9633 8.22374C33.2999 8.22374 33.6187 8.02314 33.7521 7.69164L34.7075 5.32694C34.8835 4.89174 34.6727 4.39619 34.2375 4.22024C33.8031 4.04429 33.3067 4.25509 33.1308 4.69029L32.1754 7.05499C31.9994 7.49019 32.2102 7.98574 32.6454 8.16169C32.75 8.20334 32.8579 8.22374 32.9633 8.22374Z" fill="#F0C419"/>
<path d="M25.6406 42.5001C35.0295 42.5001 42.6406 34.8889 42.6406 25.5001C42.6406 16.1112 35.0295 8.50006 25.6406 8.50006C16.2518 8.50006 8.64062 16.1112 8.64062 25.5001C8.64062 34.8889 16.2518 42.5001 25.6406 42.5001Z" fill="#F0C419"/>
<path d="M25.6406 38.25C32.6823 38.25 38.3906 32.5416 38.3906 25.5C38.3906 18.4584 32.6823 12.75 25.6406 12.75C18.599 12.75 12.8906 18.4584 12.8906 25.5C12.8906 32.5416 18.599 38.25 25.6406 38.25Z" fill="#EDE21B"/>
</svg>
